<svg xmlns="http://www.w3.org/2000/svg" xmlns:xlink="http://www.w3.org/1999/xlink" width="963" zoomAndPan="magnify" viewBox="0 0 722.25 191.999996" height="256" preserveAspectRatio="xMidYMid meet" version="1.0"><defs><clipPath id="03f6b14833"><path d="M 0 0.0976562 L 721.5 0.0976562 L 721.5 191.898438 L 0 191.898438 Z M 0 0.0976562 " clip-rule="nonzero"/></clipPath><clipPath id="3384676068"><path d="M 18.730469 0.0976562 L 702.769531 0.0976562 C 707.738281 0.0976562 712.503906 2.074219 716.015625 5.585938 C 719.527344 9.097656 721.5 13.863281 721.5 18.832031 L 721.5 173.167969 C 721.5 178.136719 719.527344 182.902344 716.015625 186.414062 C 712.503906 189.925781 707.738281 191.902344 702.769531 191.902344 L 18.730469 191.902344 C 13.761719 191.902344 9 189.925781 5.484375 186.414062 C 1.972656 182.902344 0 178.136719 0 173.167969 L 0 18.832031 C 0 13.863281 1.972656 9.097656 5.484375 5.585938 C 9 2.074219 13.761719 0.0976562 18.730469 0.0976562 " clip-rule="nonzero"/></clipPath></defs><g clip-path="url(#03f6b14833)"><g clip-path="url(#3384676068)"><path fill="#ffffff" d="M 0 0.0976562 L 721.5 0.0976562 L 721.5 191.902344 L 0 191.902344 Z M 0 0.0976562 " fill-opacity="1" fill-rule="nonzero"/></g></g><path fill="#000b1b" d="M 215.433594 120.722656 L 215.433594 69.136719 L 229.082031 69.136719 L 229.082031 88.34375 L 244.480469 88.34375 L 244.480469 69.136719 L 258.132812 69.136719 L 258.132812 120.722656 L 244.480469 120.722656 L 244.480469 100.25 L 229.082031 100.25 L 229.082031 120.722656 Z M 280.484375 121.675781 C 276.144531 121.675781 272.996094 120.222656 271.039062 117.3125 C 269.082031 114.347656 268.101562 110.40625 268.101562 105.484375 L 268.101562 81.042969 L 281.753906 81.042969 L 281.753906 103.738281 C 281.753906 106.28125 282.070312 107.972656 282.707031 108.820312 C 283.394531 109.664062 284.398438 110.089844 285.722656 110.089844 C 286.992188 110.089844 288.050781 109.824219 288.894531 109.296875 C 289.742188 108.765625 290.589844 107.867188 291.4375 106.597656 L 291.4375 81.042969 L 305.085938 81.042969 L 305.085938 120.722656 L 293.976562 120.722656 L 293.023438 115.488281 L 292.707031 115.488281 C 291.117188 117.390625 289.347656 118.898438 287.386719 120.011719 C 285.484375 121.121094 283.183594 121.675781 280.484375 121.675781 Z M 328.746094 137.074219 C 325.730469 137.074219 322.953125 136.730469 320.414062 136.042969 C 317.875 135.40625 315.835938 134.375 314.304688 132.945312 C 312.820312 131.519531 312.082031 129.613281 312.082031 127.230469 C 312.082031 124.109375 313.933594 121.570312 317.636719 119.613281 L 317.636719 119.296875 C 316.621094 118.546875 315.738281 117.632812 315.015625 116.597656 C 314.328125 115.488281 313.984375 114.109375 313.984375 112.46875 C 313.984375 111.09375 314.382812 109.746094 315.175781 108.421875 C 316.023438 107.101562 317.109375 105.960938 318.429688 105.011719 L 318.429688 104.691406 C 317 103.738281 315.730469 102.390625 314.621094 100.644531 C 313.5625 98.84375 313.03125 96.808594 313.03125 94.535156 C 313.03125 91.253906 313.828125 88.554688 315.414062 86.4375 C 317.054688 84.269531 319.171875 82.683594 321.761719 81.675781 C 324.355469 80.617188 327.105469 80.089844 330.015625 80.089844 C 332.34375 80.089844 334.460938 80.40625 336.367188 81.042969 L 351.128906 81.042969 L 351.128906 90.882812 L 345.414062 90.882812 C 345.574219 91.359375 345.707031 91.96875 345.8125 92.707031 C 345.96875 93.449219 346.050781 94.214844 346.050781 95.007812 C 346.050781 98.132812 345.335938 100.671875 343.90625 102.628906 C 342.476562 104.535156 340.546875 105.9375 338.113281 106.835938 C 335.679688 107.734375 332.980469 108.183594 330.015625 108.183594 C 328.695312 108.183594 327.214844 108 325.574219 107.628906 C 324.9375 108.210938 324.621094 108.976562 324.621094 109.929688 C 324.621094 110.777344 325.042969 111.386719 325.890625 111.757812 C 326.789062 112.125 328.21875 112.3125 330.175781 112.3125 L 336.128906 112.3125 C 341.101562 112.3125 344.9375 113.132812 347.636719 114.773438 C 350.386719 116.359375 351.761719 118.976562 351.761719 122.628906 C 351.761719 125.488281 350.8125 128 348.90625 130.167969 C 347.054688 132.339844 344.410156 134.03125 340.96875 135.246094 C 337.53125 136.464844 333.457031 137.074219 328.746094 137.074219 Z M 330.015625 100.089844 C 331.289062 100.089844 332.320312 99.640625 333.113281 98.738281 C 333.90625 97.839844 334.304688 96.4375 334.304688 94.535156 C 334.304688 92.683594 333.90625 91.332031 333.113281 90.484375 C 332.320312 89.585938 331.289062 89.136719 330.015625 89.136719 C 328.746094 89.136719 327.714844 89.585938 326.921875 90.484375 C 326.128906 91.332031 325.730469 92.683594 325.730469 94.535156 C 325.730469 96.4375 326.128906 97.839844 326.921875 98.738281 C 327.714844 99.640625 328.746094 100.089844 330.015625 100.089844 Z M 330.96875 128.660156 C 333.191406 128.660156 335.042969 128.316406 336.523438 127.628906 C 338.007812 126.992188 338.746094 126.121094 338.746094 125.011719 C 338.746094 123.953125 338.269531 123.289062 337.320312 123.027344 C 336.417969 122.761719 335.125 122.628906 333.429688 122.628906 L 330.335938 122.628906 C 328.746094 122.628906 327.53125 122.578125 326.683594 122.46875 C 325.890625 122.417969 325.203125 122.3125 324.621094 122.152344 C 323.667969 123.105469 323.191406 124.058594 323.191406 125.011719 C 323.191406 126.28125 323.90625 127.207031 325.335938 127.789062 C 326.816406 128.371094 328.695312 128.660156 330.96875 128.660156 Z M 372.074219 137.074219 C 369.058594 137.074219 366.28125 136.730469 363.738281 136.042969 C 361.199219 135.40625 359.164062 134.375 357.628906 132.945312 C 356.148438 131.519531 355.40625 129.613281 355.40625 127.230469 C 355.40625 124.109375 357.257812 121.570312 360.960938 119.613281 L 360.960938 119.296875 C 359.945312 118.546875 359.0625 117.632812 358.34375 116.597656 C 357.65625 115.488281 357.3125 114.109375 357.3125 112.46875 C 357.3125 111.09375 357.707031 109.746094 358.5 108.421875 C 359.347656 107.101562 360.433594 105.960938 361.753906 105.011719 L 361.753906 104.691406 C 360.328125 103.738281 359.058594 102.390625 357.945312 100.644531 C 356.886719 98.84375 356.359375 96.808594 356.359375 94.535156 C 356.359375 91.253906 357.152344 88.554688 358.738281 86.4375 C 360.378906 84.269531 362.496094 82.683594 365.089844 81.675781 C 367.679688 80.617188 370.433594 80.089844 373.34375 80.089844 C 375.671875 80.089844 377.789062 80.40625 379.691406 81.042969 L 394.453125 81.042969 L 394.453125 90.882812 L 388.738281 90.882812 C 388.898438 91.359375 389.03125 91.96875 389.136719 92.707031 C 389.296875 93.449219 389.375 94.214844 389.375 95.007812 C 389.375 98.132812 388.660156 100.671875 387.230469 102.628906 C 385.804688 104.535156 383.871094 105.9375 381.4375 106.835938 C 379.003906 107.734375 376.304688 108.183594 373.34375 108.183594 C 372.019531 108.183594 370.539062 108 368.898438 107.628906 C 368.261719 108.210938 367.945312 108.976562 367.945312 109.929688 C 367.945312 110.777344 368.371094 111.386719 369.214844 111.757812 C 370.117188 112.125 371.542969 112.3125 373.5 112.3125 L 379.453125 112.3125 C 384.425781 112.3125 388.261719 113.132812 390.960938 114.773438 C 393.714844 116.359375 395.089844 118.976562 395.089844 122.628906 C 395.089844 125.488281 394.136719 128 392.230469 130.167969 C 390.378906 132.339844 387.734375 134.03125 384.296875 135.246094 C 380.855469 136.464844 376.78125 137.074219 372.074219 137.074219 Z M 373.34375 100.089844 C 374.613281 100.089844 375.644531 99.640625 376.4375 98.738281 C 377.230469 97.839844 377.628906 96.4375 377.628906 94.535156 C 377.628906 92.683594 377.230469 91.332031 376.4375 90.484375 C 375.644531 89.585938 374.613281 89.136719 373.34375 89.136719 C 372.074219 89.136719 371.039062 89.585938 370.246094 90.484375 C 369.453125 91.332031 369.058594 92.683594 369.058594 94.535156 C 369.058594 96.4375 369.453125 97.839844 370.246094 98.738281 C 371.039062 99.640625 372.074219 100.089844 373.34375 100.089844 Z M 374.296875 128.660156 C 376.519531 128.660156 378.367188 128.316406 379.851562 127.628906 C 381.332031 126.992188 382.074219 126.121094 382.074219 125.011719 C 382.074219 123.953125 381.597656 123.289062 380.644531 123.027344 C 379.746094 122.761719 378.449219 122.628906 376.753906 122.628906 L 373.660156 122.628906 C 372.074219 122.628906 370.855469 122.578125 370.007812 122.46875 C 369.214844 122.417969 368.527344 122.3125 367.945312 122.152344 C 366.992188 123.105469 366.515625 124.058594 366.515625 125.011719 C 366.515625 126.28125 367.230469 127.207031 368.660156 127.789062 C 370.140625 128.371094 372.019531 128.660156 374.296875 128.660156 Z M 400.953125 120.722656 L 400.953125 81.042969 L 414.605469 81.042969 L 414.605469 120.722656 Z M 407.78125 76.121094 C 405.558594 76.121094 403.757812 75.511719 402.382812 74.296875 C 401.007812 73.027344 400.320312 71.359375 400.320312 69.296875 C 400.320312 67.230469 401.007812 65.589844 402.382812 64.375 C 403.757812 63.105469 405.558594 62.46875 407.78125 62.46875 C 410.003906 62.46875 411.800781 63.105469 413.175781 64.375 C 414.550781 65.589844 415.238281 67.230469 415.238281 69.296875 C 415.238281 71.359375 414.550781 73.027344 413.175781 74.296875 C 411.800781 75.511719 410.003906 76.121094 407.78125 76.121094 Z M 423.820312 120.722656 L 423.820312 81.042969 L 434.929688 81.042969 L 435.882812 85.804688 L 436.199219 85.804688 C 437.785156 84.269531 439.585938 82.945312 441.597656 81.835938 C 443.660156 80.671875 446.039062 80.089844 448.738281 80.089844 C 453.128906 80.089844 456.277344 81.570312 458.183594 84.535156 C 460.140625 87.445312 461.121094 91.359375 461.121094 96.28125 L 461.121094 120.722656 L 447.46875 120.722656 L 447.46875 98.027344 C 447.46875 95.484375 447.152344 93.792969 446.515625 92.945312 C 445.882812 92.097656 444.875 91.675781 443.5 91.675781 C 442.230469 91.675781 441.171875 91.941406 440.324219 92.46875 C 439.480469 93 438.527344 93.742188 437.46875 94.691406 L 437.46875 120.722656 Z M 484.457031 137.074219 C 481.441406 137.074219 478.664062 136.730469 476.121094 136.042969 C 473.582031 135.40625 471.546875 134.375 470.011719 132.945312 C 468.53125 131.519531 467.789062 129.613281 467.789062 127.230469 C 467.789062 124.109375 469.640625 121.570312 473.34375 119.613281 L 473.34375 119.296875 C 472.332031 118.546875 471.445312 117.632812 470.726562 116.597656 C 470.039062 115.488281 469.695312 114.109375 469.695312 112.46875 C 469.695312 111.09375 470.089844 109.746094 470.882812 108.421875 C 471.730469 107.101562 472.816406 105.960938 474.136719 105.011719 L 474.136719 104.691406 C 472.710938 103.738281 471.441406 102.390625 470.328125 100.644531 C 469.269531 98.84375 468.742188 96.808594 468.742188 94.535156 C 468.742188 91.253906 469.535156 88.554688 471.121094 86.4375 C 472.761719 84.269531 474.878906 82.683594 477.472656 81.675781 C 480.066406 80.617188 482.816406 80.089844 485.726562 80.089844 C 488.054688 80.089844 490.171875 80.40625 492.074219 81.042969 L 506.835938 81.042969 L 506.835938 90.882812 L 501.121094 90.882812 C 501.28125 91.359375 501.414062 91.96875 501.519531 92.707031 C 501.679688 93.449219 501.757812 94.214844 501.757812 95.007812 C 501.757812 98.132812 501.042969 100.671875 499.613281 102.628906 C 498.1875 104.535156 496.253906 105.9375 493.820312 106.835938 C 491.386719 107.734375 488.6875 108.183594 485.726562 108.183594 C 484.402344 108.183594 482.921875 108 481.28125 107.628906 C 480.644531 108.210938 480.328125 108.976562 480.328125 109.929688 C 480.328125 110.777344 480.753906 111.386719 481.597656 111.757812 C 482.5 112.125 483.925781 112.3125 485.882812 112.3125 L 491.835938 112.3125 C 496.8125 112.3125 500.648438 113.132812 503.34375 114.773438 C 506.097656 116.359375 507.472656 118.976562 507.472656 122.628906 C 507.472656 125.488281 506.519531 128 504.613281 130.167969 C 502.761719 132.339844 500.117188 134.03125 496.679688 135.246094 C 493.238281 136.464844 489.164062 137.074219 484.457031 137.074219 Z M 485.726562 100.089844 C 486.996094 100.089844 488.027344 99.640625 488.820312 98.738281 C 489.613281 97.839844 490.011719 96.4375 490.011719 94.535156 C 490.011719 92.683594 489.613281 91.332031 488.820312 90.484375 C 488.027344 89.585938 486.996094 89.136719 485.726562 89.136719 C 484.457031 89.136719 483.425781 89.585938 482.628906 90.484375 C 481.835938 91.332031 481.441406 92.683594 481.441406 94.535156 C 481.441406 96.4375 481.835938 97.839844 482.628906 98.738281 C 483.425781 99.640625 484.457031 100.089844 485.726562 100.089844 Z M 486.679688 128.660156 C 488.898438 128.660156 490.753906 128.316406 492.234375 127.628906 C 493.714844 126.992188 494.457031 126.121094 494.457031 125.011719 C 494.457031 123.953125 493.980469 123.289062 493.027344 123.027344 C 492.128906 122.761719 490.832031 122.628906 489.136719 122.628906 L 486.042969 122.628906 C 484.457031 122.628906 483.238281 122.578125 482.390625 122.46875 C 481.597656 122.417969 480.910156 122.3125 480.328125 122.152344 C 479.375 123.105469 478.902344 124.058594 478.902344 125.011719 C 478.902344 126.28125 479.613281 127.207031 481.042969 127.789062 C 482.523438 128.371094 484.402344 128.660156 486.679688 128.660156 Z M 530.335938 120.722656 L 530.335938 69.136719 L 563.988281 69.136719 L 563.988281 80.566406 L 543.988281 80.566406 L 543.988281 90.40625 L 561.128906 90.40625 L 561.128906 101.835938 L 543.988281 101.835938 L 543.988281 120.722656 Z M 578.914062 121.675781 C 576.429688 121.675781 574.285156 121.121094 572.488281 120.011719 C 570.769531 118.878906 569.375 117.320312 568.441406 115.488281 C 567.488281 113.632812 567.011719 111.625 567.011719 109.453125 C 567.011719 105.328125 568.703125 102.101562 572.089844 99.773438 C 575.476562 97.390625 580.980469 95.804688 588.597656 95.007812 C 588.28125 92.257812 586.429688 90.882812 583.042969 90.882812 C 581.613281 90.882812 580.105469 91.171875 578.519531 91.753906 C 576.933594 92.285156 575.105469 93.105469 573.042969 94.214844 L 568.28125 85.328125 C 571.085938 83.632812 573.914062 82.339844 576.773438 81.4375 C 579.675781 80.539062 582.699219 80.085938 585.742188 80.089844 C 590.925781 80.089844 594.972656 81.570312 597.882812 84.535156 C 600.792969 87.445312 602.25 92.152344 602.25 98.660156 L 602.25 120.722656 L 591.136719 120.722656 L 590.1875 116.914062 L 589.867188 116.914062 C 588.28125 118.34375 586.585938 119.507812 584.789062 120.40625 C 583.042969 121.253906 581.085938 121.675781 578.914062 121.675781 Z M 583.675781 111.199219 C 584.789062 111.199219 585.714844 110.960938 586.457031 110.484375 C 587.195312 109.957031 587.910156 109.296875 588.597656 108.503906 L 588.597656 103.105469 C 585.371094 103.582031 583.121094 104.296875 581.851562 105.246094 C 580.636719 106.199219 580.027344 107.230469 580.027344 108.34375 C 580.027344 110.246094 581.246094 111.199219 583.675781 111.199219 Z M 629.085938 121.675781 C 625.328125 121.675781 621.941406 120.855469 618.925781 119.214844 C 615.910156 117.574219 613.503906 115.222656 611.703125 112.152344 C 609.957031 109.03125 609.085938 105.273438 609.085938 100.882812 C 609.085938 96.492188 610.066406 92.761719 612.023438 89.691406 C 614.03125 86.570312 616.652344 84.191406 619.878906 82.550781 C 623.105469 80.910156 626.597656 80.089844 630.355469 80.089844 C 632.734375 80.089844 634.878906 80.460938 636.785156 81.199219 C 638.742188 81.941406 640.460938 82.945312 641.941406 84.214844 L 635.59375 92.945312 C 634.746094 92.207031 633.980469 91.703125 633.292969 91.4375 C 632.609375 91.175781 631.882812 91.039062 631.148438 91.042969 C 628.609375 91.042969 626.625 91.941406 625.195312 93.742188 C 623.769531 95.484375 623.054688 97.867188 623.054688 100.882812 C 623.054688 103.898438 623.792969 106.304688 625.277344 108.105469 C 626.757812 109.851562 628.554688 110.722656 630.671875 110.722656 C 631.785156 110.722656 632.867188 110.484375 633.925781 110.007812 C 635.011719 109.496094 636.046875 108.886719 637.023438 108.183594 L 642.261719 117.074219 C 640.300781 118.820312 638.132812 120.035156 635.753906 120.722656 C 633.371094 121.359375 631.148438 121.675781 629.085938 121.675781 Z M 664.59375 121.675781 C 660.730469 121.675781 657.238281 120.855469 654.117188 119.214844 C 651.050781 117.574219 648.613281 115.222656 646.816406 112.152344 C 645.015625 109.03125 644.117188 105.273438 644.117188 100.882812 C 644.117188 96.597656 645.015625 92.921875 646.816406 89.851562 C 648.667969 86.730469 651.050781 84.320312 653.960938 82.628906 C 656.867188 80.933594 659.9375 80.089844 663.164062 80.089844 C 667.082031 80.089844 670.308594 80.960938 672.847656 82.707031 C 675.441406 84.402344 677.34375 86.703125 678.5625 89.613281 C 679.832031 92.523438 680.46875 95.75 680.46875 99.296875 C 680.46875 100.460938 680.386719 101.597656 680.230469 102.707031 C 680.125 103.765625 680.015625 104.535156 679.910156 105.011719 L 657.292969 105.011719 C 657.925781 107.390625 659.066406 109.058594 660.707031 110.007812 C 662.34375 110.910156 664.277344 111.359375 666.5 111.359375 C 669.039062 111.359375 671.738281 110.566406 674.59375 108.976562 L 679.039062 117.074219 C 676.921875 118.554688 674.542969 119.691406 671.894531 120.484375 C 669.25 121.28125 666.816406 121.675781 664.59375 121.675781 Z M 657.132812 96.121094 L 668.878906 96.121094 C 668.878906 94.585938 668.484375 93.265625 667.6875 92.152344 C 666.949219 90.988281 665.546875 90.40625 663.484375 90.40625 C 662 90.40625 660.679688 90.855469 659.515625 91.753906 C 658.351562 92.65625 657.558594 94.109375 657.132812 96.121094 Z M 657.132812 96.121094 " fill-opacity="1" fill-rule="nonzero"/><path fill="#ffffff" d="M 186.089844 128.285156 C 185.6875 126.765625 185.035156 125.324219 184.160156 124.019531 C 184.347656 123.332031 184.492188 122.632812 184.585938 121.929688 C 185.207031 117.453125 183.65625 113.351562 180.730469 110.179688 C 179.144531 108.449219 177.445312 107.304688 175.648438 106.601562 C 176.828125 101.550781 177.425781 96.378906 177.429688 91.191406 C 177.429688 88.824219 177.296875 86.503906 177.070312 84.214844 C 176.953125 83.074219 176.8125 81.933594 176.644531 80.796875 C 176.128906 77.445312 175.367188 74.140625 174.359375 70.902344 C 173.699219 68.773438 172.9375 66.679688 172.074219 64.628906 C 170.777344 61.585938 169.265625 58.644531 167.546875 55.820312 C 166.417969 53.941406 165.191406 52.125 163.867188 50.378906 C 163.222656 49.5 162.546875 48.636719 161.84375 47.796875 C 159.761719 45.269531 157.5 42.894531 155.074219 40.691406 C 154.269531 39.949219 153.441406 39.234375 152.59375 38.546875 C 151.753906 37.847656 150.898438 37.171875 150.027344 36.519531 C 148.269531 35.214844 146.453125 33.988281 144.585938 32.84375 C 134.261719 26.574219 122.152344 22.976562 109.210938 22.976562 C 71.53125 22.976562 40.992188 53.519531 40.992188 91.195312 C 40.992188 96.449219 41.601562 101.683594 42.808594 106.796875 C 41.1875 107.5 39.636719 108.59375 38.199219 110.179688 C 35.273438 113.347656 33.722656 117.433594 34.34375 121.910156 C 34.4375 122.621094 34.578125 123.328125 34.769531 124.019531 C 33.894531 125.324219 33.242188 126.765625 32.839844 128.285156 C 31.941406 131.703125 32.234375 134.785156 33.378906 137.484375 C 32.136719 141.011719 32.449219 144.769531 34.066406 148.039062 C 35.242188 150.425781 36.925781 152.269531 39 153.921875 C 41.464844 155.878906 44.554688 157.546875 48.28125 159.144531 C 52.726562 161.042969 58.148438 162.824219 60.617188 163.476562 C 66.988281 165.125 73.101562 166.171875 79.292969 166.222656 C 88.117188 166.304688 95.714844 164.230469 101.15625 158.917969 C 103.828125 159.246094 106.519531 159.410156 109.210938 159.410156 C 112.054688 159.40625 114.898438 159.222656 117.722656 158.875 C 123.148438 164.21875 130.777344 166.3125 139.632812 166.226562 C 145.824219 166.179688 151.933594 165.132812 158.292969 163.480469 C 160.773438 162.824219 166.199219 161.046875 170.644531 159.152344 C 174.371094 157.546875 177.457031 155.882812 179.941406 153.925781 C 182 152.273438 183.683594 150.429688 184.859375 148.042969 C 186.492188 144.773438 186.789062 141.015625 185.5625 137.488281 C 186.695312 134.789062 186.988281 131.699219 186.089844 128.285156 Z M 179.765625 137.253906 C 181.019531 139.628906 181.101562 142.316406 179.996094 144.816406 C 178.320312 148.605469 174.15625 151.589844 166.078125 154.792969 C 161.050781 156.785156 156.449219 158.058594 156.410156 158.074219 C 149.761719 159.796875 143.75 160.671875 138.546875 160.671875 C 129.929688 160.671875 123.515625 158.292969 119.449219 153.597656 C 112.570312 154.769531 105.550781 154.808594 98.660156 153.714844 C 94.589844 158.332031 88.210938 160.671875 79.667969 160.671875 C 74.460938 160.671875 68.453125 159.796875 61.804688 158.074219 C 61.761719 158.058594 57.164062 156.785156 52.136719 154.792969 C 44.054688 151.589844 39.890625 148.605469 38.21875 144.816406 C 37.113281 142.316406 37.191406 139.628906 38.445312 137.253906 C 38.5625 137.035156 38.683594 136.816406 38.816406 136.609375 C 38.066406 135.484375 37.5625 134.210938 37.339844 132.875 C 37.117188 131.539062 37.179688 130.171875 37.523438 128.863281 C 38.019531 126.972656 39.046875 125.402344 40.441406 124.273438 C 39.769531 123.167969 39.332031 121.9375 39.148438 120.660156 C 38.746094 117.875 39.667969 115.097656 41.746094 112.832031 C 43.363281 111.070312 45.652344 110.097656 48.183594 110.097656 L 48.253906 110.097656 C 46.34375 103.980469 45.375 97.605469 45.378906 91.191406 C 45.378906 56.226562 73.730469 27.875 108.699219 27.875 C 143.671875 27.875 172.019531 56.222656 172.019531 91.191406 C 172.023438 97.621094 171.050781 104.011719 169.128906 110.148438 C 169.433594 110.117188 169.734375 110.101562 170.027344 110.101562 C 172.558594 110.101562 174.847656 111.070312 176.464844 112.835938 C 178.542969 115.097656 179.46875 117.878906 179.066406 120.660156 C 178.882812 121.941406 178.441406 123.167969 177.769531 124.273438 C 179.164062 125.402344 180.191406 126.972656 180.691406 128.863281 C 181.03125 130.175781 181.09375 131.542969 180.871094 132.878906 C 180.648438 134.210938 180.144531 135.484375 179.394531 136.613281 C 179.527344 136.816406 179.652344 137.035156 179.765625 137.253906 Z M 179.765625 137.253906 " fill-opacity="1" fill-rule="nonzero"/><path fill="#ff9d00" d="M 179.394531 136.613281 C 180.144531 135.484375 180.648438 134.210938 180.871094 132.878906 C 181.09375 131.542969 181.03125 130.175781 180.691406 128.863281 C 180.191406 126.976562 179.164062 125.402344 177.769531 124.273438 C 178.441406 123.167969 178.882812 121.941406 179.066406 120.660156 C 179.46875 117.878906 178.542969 115.101562 176.464844 112.835938 C 174.847656 111.070312 172.558594 110.101562 170.027344 110.101562 C 169.734375 110.101562 169.433594 110.117188 169.128906 110.148438 C 171.046875 104.011719 172.019531 97.621094 172.015625 91.195312 C 172.015625 56.226562 143.667969 27.878906 108.699219 27.878906 C 73.730469 27.878906 45.378906 56.222656 45.378906 91.195312 C 45.371094 97.605469 46.339844 103.980469 48.25 110.101562 L 48.183594 110.101562 C 45.648438 110.101562 43.363281 111.070312 41.746094 112.832031 C 39.667969 115.097656 38.742188 117.878906 39.144531 120.660156 C 39.328125 121.941406 39.769531 123.167969 40.441406 124.273438 C 39.046875 125.402344 38.019531 126.972656 37.523438 128.863281 C 37.179688 130.171875 37.117188 131.542969 37.339844 132.878906 C 37.5625 134.210938 38.066406 135.484375 38.816406 136.613281 C 38.683594 136.820312 38.5625 137.035156 38.445312 137.257812 C 37.195312 139.632812 37.113281 142.316406 38.21875 144.816406 C 39.894531 148.605469 44.054688 151.589844 52.136719 154.796875 C 57.160156 156.789062 61.765625 158.0625 61.804688 158.074219 C 68.453125 159.796875 74.464844 160.675781 79.667969 160.675781 C 88.210938 160.675781 94.589844 158.335938 98.660156 153.71875 C 105.550781 154.8125 112.574219 154.769531 119.449219 153.601562 C 123.515625 158.296875 129.929688 160.675781 138.546875 160.675781 C 143.75 160.675781 149.761719 159.796875 156.410156 158.074219 C 156.449219 158.0625 161.050781 156.789062 166.078125 154.796875 C 174.160156 151.589844 178.320312 148.605469 179.996094 144.816406 C 181.101562 142.316406 181.019531 139.632812 179.769531 137.257812 C 179.652344 137.035156 179.527344 136.820312 179.394531 136.613281 Z M 95.746094 146.488281 C 95.394531 147.101562 95.019531 147.699219 94.621094 148.28125 C 93.566406 149.824219 92.183594 151 90.578125 151.875 C 87.503906 153.550781 83.617188 154.136719 79.667969 154.136719 C 73.425781 154.136719 67.03125 152.675781 63.445312 151.746094 C 63.269531 151.699219 41.464844 145.542969 44.226562 140.300781 C 44.691406 139.417969 45.457031 139.066406 46.417969 139.066406 C 50.304688 139.066406 57.378906 144.855469 60.421875 144.855469 C 61.101562 144.855469 61.582031 144.566406 61.777344 143.859375 C 63.074219 139.210938 42.078125 137.257812 43.84375 130.527344 C 44.15625 129.335938 45.003906 128.851562 46.195312 128.851562 C 51.332031 128.851562 62.863281 137.886719 65.273438 137.886719 C 65.460938 137.886719 65.59375 137.832031 65.664062 137.71875 L 65.695312 137.667969 C 66.828125 135.796875 66.179688 134.4375 58.421875 129.6875 L 57.679688 129.234375 C 49.144531 124.070312 43.152344 120.960938 46.5625 117.253906 C 46.953125 116.824219 47.507812 116.632812 48.183594 116.632812 C 48.984375 116.632812 49.953125 116.902344 51.019531 117.351562 C 55.527344 119.253906 61.773438 124.4375 64.382812 126.695312 C 65.152344 127.367188 65.605469 127.777344 65.605469 127.777344 C 65.605469 127.777344 68.910156 131.210938 70.910156 131.210938 C 71.367188 131.210938 71.757812 131.03125 72.023438 130.582031 C 73.441406 128.195312 58.863281 117.148438 58.042969 112.59375 C 57.484375 109.503906 58.433594 107.941406 60.1875 107.941406 C 61.019531 107.941406 62.039062 108.292969 63.160156 109.007812 C 66.644531 111.21875 73.371094 122.777344 75.835938 127.273438 C 76.660156 128.78125 78.070312 129.417969 79.339844 129.417969 C 81.859375 129.417969 83.828125 126.914062 79.570312 123.730469 C 73.167969 118.941406 75.414062 111.113281 78.46875 110.632812 C 78.601562 110.609375 78.730469 110.601562 78.863281 110.601562 C 81.640625 110.601562 82.867188 115.386719 82.867188 115.386719 C 82.867188 115.386719 86.457031 124.40625 92.628906 130.570312 C 98.226562 136.167969 99.007812 140.761719 95.746094 146.488281 Z M 115.699219 147.542969 L 115.378906 147.582031 L 114.832031 147.644531 C 114.542969 147.675781 114.257812 147.703125 113.96875 147.730469 L 113.6875 147.753906 L 113.429688 147.777344 L 113.066406 147.804688 C 112.933594 147.816406 112.796875 147.828125 112.664062 147.835938 L 112.261719 147.863281 L 112.175781 147.867188 L 111.859375 147.886719 L 111.722656 147.894531 L 111.347656 147.910156 L 110.914062 147.929688 L 110.519531 147.941406 L 110.253906 147.949219 L 110.121094 147.949219 C 110.039062 147.949219 109.957031 147.953125 109.875 147.957031 L 109.742188 147.957031 C 109.660156 147.957031 109.578125 147.957031 109.496094 147.960938 L 109.164062 147.964844 L 108.695312 147.964844 C 108.324219 147.964844 107.960938 147.960938 107.59375 147.953125 L 107.296875 147.945312 C 107.210938 147.945312 107.128906 147.941406 107.042969 147.941406 L 106.730469 147.929688 L 106.339844 147.914062 L 105.988281 147.898438 L 105.894531 147.894531 L 105.5625 147.878906 C 105.46875 147.875 105.375 147.867188 105.28125 147.863281 L 105.066406 147.851562 C 104.792969 147.832031 104.523438 147.8125 104.25 147.792969 L 103.964844 147.769531 L 103.605469 147.738281 L 103.1875 147.699219 C 102.953125 147.679688 102.71875 147.65625 102.480469 147.628906 L 102.472656 147.628906 C 105.894531 139.988281 104.164062 132.855469 97.246094 125.941406 C 92.707031 121.410156 89.6875 114.71875 89.0625 113.25 C 87.792969 108.898438 84.4375 104.066406 78.867188 104.066406 C 78.394531 104.066406 77.925781 104.105469 77.460938 104.175781 C 75.019531 104.5625 72.886719 105.964844 71.363281 108.082031 C 69.71875 106.035156 68.117188 104.40625 66.671875 103.488281 C 64.492188 102.105469 62.316406 101.40625 60.195312 101.40625 C 57.550781 101.40625 55.1875 102.492188 53.539062 104.460938 L 53.496094 104.511719 L 53.40625 104.121094 L 53.402344 104.105469 C 53.085938 102.765625 52.824219 101.410156 52.609375 100.050781 C 52.609375 100.042969 52.609375 100.03125 52.605469 100.023438 L 52.558594 99.714844 C 52.535156 99.550781 52.511719 99.382812 52.488281 99.214844 C 52.46875 99.078125 52.449219 98.9375 52.429688 98.800781 C 52.410156 98.664062 52.390625 98.523438 52.375 98.386719 C 52.359375 98.246094 52.339844 98.109375 52.324219 97.96875 C 52.308594 97.835938 52.292969 97.707031 52.277344 97.574219 L 52.273438 97.539062 C 52.207031 96.929688 52.148438 96.320312 52.101562 95.710938 L 52.074219 95.359375 C 52.066406 95.261719 52.058594 95.164062 52.054688 95.066406 C 52.054688 95.042969 52.050781 95.023438 52.050781 95 L 52.023438 94.609375 C 52.015625 94.46875 52.007812 94.328125 52.003906 94.183594 C 51.996094 94.042969 51.988281 93.902344 51.980469 93.761719 L 51.964844 93.390625 L 51.960938 93.277344 L 51.949219 92.933594 L 51.941406 92.644531 C 51.941406 92.527344 51.9375 92.410156 51.933594 92.292969 L 51.929688 91.925781 C 51.925781 91.804688 51.929688 91.683594 51.925781 91.5625 C 51.921875 91.4375 51.925781 91.316406 51.925781 91.195312 C 51.925781 59.835938 77.347656 34.414062 108.707031 34.414062 C 140.066406 34.414062 165.488281 59.835938 165.488281 91.195312 L 165.488281 91.925781 C 165.488281 92.050781 165.484375 92.171875 165.480469 92.292969 C 165.480469 92.394531 165.476562 92.496094 165.476562 92.597656 C 165.476562 92.6875 165.472656 92.777344 165.46875 92.867188 C 165.46875 92.980469 165.460938 93.09375 165.457031 93.207031 L 165.457031 93.21875 C 165.445312 93.46875 165.4375 93.714844 165.425781 93.964844 L 165.421875 94.046875 L 165.402344 94.417969 L 165.382812 94.710938 C 165.34375 95.410156 165.289062 96.109375 165.21875 96.804688 L 165.21875 96.8125 C 165.207031 96.945312 165.195312 97.074219 165.179688 97.207031 C 165.148438 97.507812 165.113281 97.8125 165.082031 98.117188 L 165.042969 98.421875 L 164.996094 98.777344 C 164.980469 98.910156 164.960938 99.039062 164.941406 99.171875 C 164.921875 99.316406 164.898438 99.460938 164.878906 99.609375 L 164.828125 99.949219 L 164.765625 100.339844 C 164.746094 100.46875 164.722656 100.597656 164.699219 100.726562 C 164.671875 100.855469 164.652344 100.984375 164.632812 101.117188 C 164.585938 101.375 164.539062 101.628906 164.488281 101.886719 C 164.390625 102.398438 164.285156 102.910156 164.175781 103.417969 C 164.148438 103.546875 164.121094 103.671875 164.089844 103.800781 C 162.492188 102.246094 160.375 101.398438 158.042969 101.398438 C 155.921875 101.398438 153.746094 102.101562 151.566406 103.484375 C 150.121094 104.402344 148.523438 106.027344 146.875 108.074219 C 145.351562 105.960938 143.21875 104.554688 140.777344 104.171875 C 140.3125 104.097656 139.84375 104.0625 139.371094 104.058594 C 133.796875 104.058594 130.445312 108.894531 129.175781 113.242188 C 128.546875 114.714844 125.527344 121.40625 120.984375 125.945312 C 114.070312 132.835938 112.328125 139.9375 115.699219 147.542969 Z M 174.316406 132.253906 L 174.292969 132.320312 C 174.277344 132.363281 174.261719 132.40625 174.246094 132.449219 C 174.21875 132.511719 174.191406 132.574219 174.160156 132.636719 C 174.085938 132.785156 174.003906 132.929688 173.914062 133.066406 C 173.789062 133.253906 173.652344 133.429688 173.503906 133.597656 C 173.46875 133.636719 173.4375 133.675781 173.398438 133.714844 C 173.34375 133.773438 173.289062 133.828125 173.234375 133.882812 C 172.222656 134.882812 170.6875 135.761719 168.949219 136.566406 C 168.75 136.652344 168.550781 136.742188 168.347656 136.832031 L 168.148438 136.921875 C 168.015625 136.980469 167.882812 137.039062 167.742188 137.097656 C 167.601562 137.15625 167.464844 137.214844 167.328125 137.269531 L 166.910156 137.445312 C 165.933594 137.847656 164.929688 138.230469 163.953125 138.609375 L 163.535156 138.769531 L 163.121094 138.933594 C 162.847656 139.039062 162.574219 139.144531 162.308594 139.253906 L 161.910156 139.414062 L 161.519531 139.574219 L 161.328125 139.652344 C 161.199219 139.707031 161.074219 139.761719 160.949219 139.816406 C 158.074219 141.046875 156.007812 142.300781 156.441406 143.859375 C 156.453125 143.90625 156.464844 143.945312 156.480469 143.988281 C 156.519531 144.101562 156.574219 144.210938 156.640625 144.3125 C 156.679688 144.375 156.722656 144.433594 156.773438 144.484375 C 157.285156 145.015625 158.214844 144.933594 159.386719 144.511719 C 159.480469 144.476562 159.578125 144.4375 159.679688 144.402344 C 159.746094 144.375 159.8125 144.347656 159.878906 144.320312 L 159.980469 144.277344 C 160.25 144.164062 160.53125 144.039062 160.824219 143.898438 C 160.894531 143.867188 160.96875 143.832031 161.042969 143.792969 C 162.476562 143.09375 164.101562 142.148438 165.714844 141.289062 C 165.960938 141.15625 166.207031 141.027344 166.457031 140.898438 C 166.859375 140.691406 167.265625 140.488281 167.675781 140.296875 C 169.203125 139.578125 170.636719 139.070312 171.792969 139.070312 C 172.332031 139.070312 172.8125 139.179688 173.210938 139.433594 L 173.277344 139.480469 C 173.476562 139.621094 173.652344 139.796875 173.796875 139.996094 C 173.828125 140.042969 173.863281 140.09375 173.894531 140.144531 C 173.925781 140.195312 173.953125 140.246094 173.984375 140.300781 C 174.554688 141.382812 174.074219 142.503906 172.960938 143.605469 C 171.886719 144.660156 170.21875 145.695312 168.324219 146.652344 C 168.183594 146.722656 168.042969 146.792969 167.898438 146.863281 C 162.257812 149.632812 154.871094 151.71875 154.765625 151.746094 C 152.796875 152.257812 149.980469 152.925781 146.808594 153.429688 L 146.339844 153.5 L 146.265625 153.511719 C 145.542969 153.621094 144.824219 153.714844 144.101562 153.796875 L 144.035156 153.804688 C 142.71875 153.953125 141.371094 154.0625 140.019531 154.109375 L 140 154.109375 C 139.511719 154.125 139.027344 154.136719 138.542969 154.136719 L 137.984375 154.136719 C 137.242188 154.125 136.503906 154.089844 135.765625 154.035156 C 135.75 154.035156 135.730469 154.035156 135.714844 154.03125 C 135.449219 154.011719 135.183594 153.984375 134.921875 153.957031 C 134.46875 153.90625 134.019531 153.847656 133.566406 153.777344 C 133.390625 153.75 133.203125 153.71875 133.023438 153.6875 C 132.941406 153.671875 132.859375 153.65625 132.777344 153.640625 L 132.757812 153.636719 C 132.5 153.585938 132.242188 153.53125 131.984375 153.472656 C 131.832031 153.4375 131.683594 153.40625 131.535156 153.367188 L 131.449219 153.34375 C 131.375 153.324219 131.300781 153.304688 131.230469 153.285156 L 131.191406 153.273438 L 130.960938 153.207031 C 130.875 153.183594 130.792969 153.160156 130.707031 153.136719 L 130.679688 153.125 L 130.460938 153.058594 C 130.378906 153.035156 130.296875 153.007812 130.214844 152.980469 C 130.148438 152.957031 130.082031 152.933594 130.011719 152.914062 L 129.867188 152.863281 C 129.722656 152.8125 129.582031 152.757812 129.441406 152.707031 L 129.308594 152.652344 L 129.199219 152.609375 C 128.984375 152.523438 128.773438 152.433594 128.566406 152.339844 L 128.425781 152.273438 L 128.402344 152.265625 C 128.355469 152.242188 128.304688 152.21875 128.253906 152.195312 C 128.160156 152.152344 128.0625 152.101562 127.96875 152.054688 L 127.9375 152.039062 L 127.800781 151.96875 C 127.554688 151.839844 127.316406 151.703125 127.082031 151.558594 L 126.953125 151.480469 C 126.886719 151.4375 126.824219 151.398438 126.761719 151.355469 L 126.59375 151.246094 C 126.53125 151.203125 126.472656 151.164062 126.414062 151.121094 L 126.304688 151.042969 C 126.191406 150.960938 126.078125 150.878906 125.96875 150.792969 C 125.910156 150.746094 125.851562 150.703125 125.796875 150.660156 C 125.667969 150.554688 125.542969 150.449219 125.417969 150.34375 L 125.414062 150.335938 C 125.292969 150.234375 125.175781 150.125 125.058594 150.015625 L 125.054688 150.007812 C 124.996094 149.949219 124.9375 149.894531 124.878906 149.835938 C 124.820312 149.777344 124.761719 149.71875 124.703125 149.65625 C 124.648438 149.597656 124.589844 149.539062 124.535156 149.476562 C 124.480469 149.417969 124.429688 149.355469 124.375 149.296875 L 124.359375 149.277344 C 124.089844 148.964844 123.835938 148.632812 123.601562 148.292969 L 123.507812 148.15625 C 123.445312 148.0625 123.386719 147.972656 123.324219 147.882812 L 123.148438 147.609375 C 123.0625 147.476562 122.976562 147.34375 122.894531 147.207031 C 122.835938 147.113281 122.777344 147.015625 122.71875 146.917969 C 122.671875 146.835938 122.621094 146.753906 122.574219 146.675781 C 122.550781 146.628906 122.523438 146.585938 122.5 146.539062 C 122.476562 146.492188 122.445312 146.445312 122.417969 146.398438 L 122.378906 146.324219 C 122.363281 146.300781 122.359375 146.292969 122.351562 146.277344 C 122.300781 146.1875 122.25 146.097656 122.203125 146.003906 C 122.179688 145.964844 122.160156 145.925781 122.136719 145.882812 L 122.070312 145.753906 L 122.003906 145.628906 L 121.875 145.367188 C 121.851562 145.324219 121.832031 145.28125 121.8125 145.238281 C 121.769531 145.148438 121.726562 145.058594 121.683594 144.964844 C 121.667969 144.929688 121.652344 144.894531 121.636719 144.855469 C 121.578125 144.730469 121.523438 144.605469 121.472656 144.476562 C 121.4375 144.390625 121.402344 144.308594 121.371094 144.222656 C 121.273438 143.976562 121.183594 143.726562 121.097656 143.472656 C 121.074219 143.398438 121.050781 143.324219 121.027344 143.25 C 120.972656 143.082031 120.925781 142.910156 120.882812 142.734375 C 120.828125 142.535156 120.78125 142.332031 120.742188 142.125 C 120.714844 142.003906 120.695312 141.882812 120.675781 141.761719 C 120.65625 141.640625 120.636719 141.519531 120.625 141.402344 C 120.59375 141.160156 120.570312 140.921875 120.558594 140.679688 C 120.558594 140.640625 120.554688 140.601562 120.554688 140.5625 C 120.550781 140.480469 120.546875 140.402344 120.546875 140.324219 C 120.503906 137.121094 122.125 134.042969 125.589844 130.582031 C 131.757812 124.417969 135.351562 115.398438 135.351562 115.398438 C 135.351562 115.398438 135.445312 115.019531 135.648438 114.476562 C 135.714844 114.296875 135.785156 114.117188 135.859375 113.9375 C 135.945312 113.738281 136.035156 113.539062 136.132812 113.34375 L 136.160156 113.285156 C 136.285156 113.039062 136.421875 112.796875 136.570312 112.558594 C 136.601562 112.503906 136.636719 112.449219 136.675781 112.398438 C 136.785156 112.234375 136.902344 112.074219 137.023438 111.921875 C 137.117188 111.804688 137.21875 111.691406 137.324219 111.582031 C 137.679688 111.214844 138.089844 110.914062 138.550781 110.75 L 138.609375 110.734375 C 138.648438 110.71875 138.6875 110.707031 138.726562 110.695312 C 138.773438 110.683594 138.820312 110.671875 138.867188 110.664062 L 138.886719 110.660156 C 138.984375 110.640625 139.085938 110.628906 139.183594 110.621094 L 139.191406 110.621094 C 139.246094 110.621094 139.296875 110.613281 139.347656 110.613281 C 139.480469 110.617188 139.613281 110.625 139.746094 110.648438 C 140.300781 110.734375 140.832031 111.066406 141.285156 111.578125 L 141.347656 111.648438 C 141.496094 111.820312 141.628906 112.007812 141.75 112.203125 C 141.839844 112.347656 141.925781 112.5 142.003906 112.660156 C 142.039062 112.726562 142.066406 112.789062 142.097656 112.855469 C 142.113281 112.886719 142.128906 112.921875 142.144531 112.953125 C 142.171875 113.023438 142.199219 113.089844 142.230469 113.160156 C 142.386719 113.5625 142.507812 113.976562 142.59375 114.398438 C 142.683594 114.855469 142.734375 115.316406 142.75 115.78125 C 142.753906 115.988281 142.753906 116.195312 142.75 116.402344 C 142.746094 116.484375 142.742188 116.5625 142.738281 116.644531 C 142.675781 117.535156 142.480469 118.410156 142.160156 119.246094 C 142.128906 119.328125 142.09375 119.410156 142.058594 119.496094 C 141.898438 119.878906 141.710938 120.253906 141.5 120.613281 C 141.378906 120.816406 141.25 121.023438 141.109375 121.222656 L 141.023438 121.34375 C 140.695312 121.808594 140.324219 122.238281 139.921875 122.640625 C 139.523438 123.039062 139.101562 123.40625 138.648438 123.742188 C 138.199219 124.074219 137.773438 124.445312 137.382812 124.847656 C 136.257812 126.03125 135.996094 127.074219 136.25 127.863281 C 136.277344 127.953125 136.3125 128.039062 136.355469 128.125 C 136.449219 128.308594 136.570312 128.476562 136.714844 128.625 L 136.753906 128.664062 C 136.796875 128.703125 136.839844 128.742188 136.882812 128.777344 L 136.929688 128.8125 C 137.039062 128.898438 137.152344 128.972656 137.273438 129.039062 C 137.308594 129.058594 137.339844 129.074219 137.378906 129.09375 C 137.546875 129.175781 137.71875 129.242188 137.898438 129.292969 L 137.945312 129.304688 L 138.011719 129.324219 L 138.070312 129.335938 L 138.132812 129.351562 L 138.195312 129.363281 L 138.253906 129.375 C 138.300781 129.382812 138.34375 129.386719 138.386719 129.394531 L 138.429688 129.398438 L 138.507812 129.410156 L 138.554688 129.414062 L 138.636719 129.417969 L 138.683594 129.417969 L 138.765625 129.421875 L 139.023438 129.421875 L 139.097656 129.417969 L 139.183594 129.414062 L 139.289062 129.402344 L 139.386719 129.390625 C 139.40625 129.390625 139.429688 129.386719 139.453125 129.382812 C 139.796875 129.332031 140.128906 129.234375 140.445312 129.09375 C 140.511719 129.066406 140.578125 129.035156 140.640625 129 C 140.773438 128.9375 140.902344 128.863281 141.023438 128.78125 C 141.195312 128.667969 141.355469 128.539062 141.507812 128.402344 L 141.613281 128.300781 C 141.632812 128.285156 141.648438 128.269531 141.664062 128.253906 C 141.769531 128.148438 141.863281 128.039062 141.957031 127.925781 C 142.117188 127.722656 142.257812 127.507812 142.382812 127.28125 C 143.847656 124.617188 145.386719 121.988281 146.992188 119.40625 L 147.210938 119.054688 L 147.433594 118.699219 C 147.546875 118.519531 147.65625 118.34375 147.769531 118.167969 L 147.882812 117.992188 L 148.105469 117.640625 C 148.410156 117.171875 148.714844 116.710938 149.019531 116.253906 L 149.246094 115.910156 C 149.707031 115.230469 150.164062 114.570312 150.617188 113.941406 L 150.84375 113.632812 C 151.335938 112.953125 151.847656 112.289062 152.378906 111.636719 L 152.59375 111.386719 C 152.628906 111.34375 152.660156 111.300781 152.699219 111.261719 L 152.90625 111.019531 C 152.9375 110.980469 152.972656 110.941406 153.007812 110.902344 L 153.210938 110.675781 L 153.308594 110.566406 C 153.40625 110.460938 153.507812 110.355469 153.605469 110.253906 C 153.675781 110.1875 153.738281 110.117188 153.800781 110.058594 C 154.179688 109.667969 154.601562 109.320312 155.050781 109.019531 L 155.15625 108.949219 L 155.261719 108.882812 C 155.328125 108.839844 155.398438 108.800781 155.46875 108.761719 C 157.238281 107.757812 158.707031 107.683594 159.550781 108.527344 C 160.0625 109.039062 160.34375 109.886719 160.328125 111.066406 C 160.328125 111.117188 160.328125 111.167969 160.324219 111.222656 L 160.324219 111.28125 C 160.324219 111.335938 160.320312 111.390625 160.316406 111.445312 C 160.316406 111.511719 160.308594 111.578125 160.300781 111.644531 C 160.292969 111.710938 160.289062 111.761719 160.285156 111.824219 C 160.285156 111.839844 160.28125 111.855469 160.277344 111.875 C 160.273438 111.925781 160.265625 111.980469 160.257812 112.03125 C 160.257812 112.050781 160.257812 112.066406 160.253906 112.082031 C 160.246094 112.152344 160.234375 112.222656 160.222656 112.292969 C 160.214844 112.359375 160.203125 112.425781 160.191406 112.488281 C 160.183594 112.527344 160.175781 112.5625 160.171875 112.601562 C 160.152344 112.707031 160.125 112.8125 160.097656 112.917969 C 160.039062 113.109375 159.96875 113.300781 159.882812 113.484375 C 159.847656 113.5625 159.808594 113.644531 159.773438 113.722656 C 159.691406 113.886719 159.597656 114.050781 159.5 114.222656 C 159.449219 114.308594 159.398438 114.394531 159.339844 114.484375 L 159.257812 114.617188 C 159.171875 114.75 159.082031 114.886719 158.988281 115.023438 C 158.898438 115.160156 158.796875 115.300781 158.691406 115.441406 C 158.550781 115.632812 158.40625 115.824219 158.25 116.019531 L 158.132812 116.167969 C 157.804688 116.578125 157.464844 116.984375 157.121094 117.378906 L 156.84375 117.691406 L 156.703125 117.847656 C 156.511719 118.0625 156.320312 118.273438 156.128906 118.484375 L 155.980469 118.644531 C 155.882812 118.75 155.777344 118.859375 155.679688 118.964844 C 155.582031 119.074219 155.480469 119.183594 155.375 119.292969 L 155.066406 119.617188 L 154.753906 119.941406 C 154.652344 120.050781 154.546875 120.160156 154.441406 120.269531 L 153.804688 120.925781 C 150.765625 124.042969 147.566406 127.148438 146.480469 129.082031 C 146.410156 129.210938 146.34375 129.339844 146.285156 129.472656 C 146.132812 129.824219 146.066406 130.125 146.109375 130.367188 C 146.125 130.449219 146.152344 130.527344 146.195312 130.59375 C 146.257812 130.699219 146.332031 130.796875 146.414062 130.886719 C 146.457031 130.925781 146.496094 130.960938 146.542969 130.992188 C 146.765625 131.152344 147.035156 131.234375 147.308594 131.226562 L 147.394531 131.226562 L 147.480469 131.21875 L 147.570312 131.210938 L 147.640625 131.199219 C 147.652344 131.199219 147.660156 131.195312 147.671875 131.195312 L 147.738281 131.179688 L 147.753906 131.175781 L 147.828125 131.160156 L 147.855469 131.152344 L 147.933594 131.132812 L 148.027344 131.105469 C 148.089844 131.085938 148.152344 131.066406 148.214844 131.042969 C 148.347656 130.996094 148.480469 130.941406 148.609375 130.878906 C 148.644531 130.863281 148.679688 130.847656 148.710938 130.828125 L 148.808594 130.78125 C 148.941406 130.714844 149.070312 130.644531 149.199219 130.566406 C 149.304688 130.503906 149.40625 130.441406 149.511719 130.375 L 149.613281 130.308594 C 149.644531 130.289062 149.679688 130.265625 149.710938 130.242188 L 149.8125 130.175781 L 149.863281 130.136719 L 150.007812 130.039062 C 150.140625 129.945312 150.265625 129.847656 150.394531 129.753906 L 150.40625 129.746094 L 150.605469 129.589844 C 150.878906 129.371094 151.140625 129.152344 151.378906 128.945312 L 151.535156 128.808594 L 151.550781 128.792969 L 151.632812 128.722656 C 151.824219 128.546875 151.996094 128.386719 152.140625 128.253906 L 152.199219 128.195312 L 152.339844 128.0625 L 152.425781 127.980469 L 152.464844 127.941406 C 152.535156 127.867188 152.535156 127.867188 152.609375 127.796875 L 152.613281 127.789062 L 152.640625 127.765625 C 152.648438 127.757812 152.660156 127.75 152.671875 127.738281 L 152.683594 127.726562 L 152.710938 127.703125 L 152.863281 127.566406 L 152.949219 127.492188 C 152.992188 127.453125 153.035156 127.414062 153.082031 127.371094 L 153.1875 127.277344 C 153.203125 127.265625 153.222656 127.246094 153.242188 127.230469 L 153.347656 127.136719 L 153.503906 127 L 153.589844 126.925781 C 153.914062 126.640625 154.3125 126.300781 154.765625 125.914062 L 154.953125 125.757812 L 155.261719 125.5 L 155.578125 125.234375 C 155.988281 124.894531 156.433594 124.53125 156.902344 124.152344 L 157.210938 123.90625 C 157.472656 123.695312 157.742188 123.484375 158.015625 123.269531 C 158.125 123.183594 158.234375 123.097656 158.347656 123.011719 C 158.628906 122.796875 158.910156 122.582031 159.191406 122.367188 C 159.832031 121.882812 160.496094 121.394531 161.167969 120.921875 L 161.457031 120.722656 C 161.65625 120.582031 161.855469 120.445312 162.058594 120.308594 L 162.242188 120.183594 C 162.601562 119.941406 162.964844 119.703125 163.332031 119.472656 L 163.511719 119.359375 L 163.695312 119.246094 C 163.875 119.132812 164.054688 119.023438 164.234375 118.914062 L 164.414062 118.808594 L 164.769531 118.601562 C 164.890625 118.53125 165.003906 118.464844 165.121094 118.398438 L 165.191406 118.359375 L 165.472656 118.207031 C 165.585938 118.144531 165.703125 118.085938 165.816406 118.023438 L 165.988281 117.9375 L 166.15625 117.851562 C 166.535156 117.660156 166.925781 117.484375 167.320312 117.320312 C 167.371094 117.300781 167.425781 117.277344 167.480469 117.253906 C 167.585938 117.210938 167.6875 117.171875 167.792969 117.132812 C 167.898438 117.097656 168 117.0625 168.101562 117.027344 C 168.195312 116.996094 168.28125 116.96875 168.371094 116.941406 L 168.398438 116.929688 C 168.445312 116.917969 168.492188 116.902344 168.539062 116.890625 L 168.550781 116.886719 C 168.644531 116.859375 168.742188 116.835938 168.835938 116.8125 L 168.84375 116.8125 C 168.984375 116.78125 169.121094 116.75 169.253906 116.730469 C 169.296875 116.722656 169.34375 116.714844 169.386719 116.707031 C 169.515625 116.6875 169.648438 116.675781 169.777344 116.664062 C 169.859375 116.660156 169.941406 116.65625 170.027344 116.65625 L 170.089844 116.65625 C 170.171875 116.65625 170.253906 116.664062 170.332031 116.671875 C 170.371094 116.671875 170.40625 116.679688 170.441406 116.683594 L 170.457031 116.683594 C 170.492188 116.6875 170.53125 116.691406 170.566406 116.699219 C 170.601562 116.707031 170.636719 116.714844 170.671875 116.722656 L 170.683594 116.722656 C 170.71875 116.730469 170.75 116.738281 170.785156 116.75 C 171.070312 116.824219 171.335938 116.972656 171.554688 117.171875 L 171.609375 117.226562 L 171.648438 117.269531 C 171.949219 117.585938 172.199219 117.945312 172.382812 118.339844 L 172.414062 118.40625 C 172.476562 118.558594 172.527344 118.710938 172.5625 118.871094 C 172.660156 119.3125 172.632812 119.773438 172.488281 120.203125 C 172.421875 120.390625 172.34375 120.570312 172.253906 120.746094 L 172.191406 120.855469 C 171.957031 121.246094 171.683594 121.613281 171.367188 121.945312 L 171.300781 122.015625 C 171.152344 122.171875 171 122.324219 170.839844 122.46875 C 170.792969 122.515625 170.738281 122.5625 170.6875 122.613281 L 170.609375 122.683594 C 170.441406 122.828125 170.273438 122.972656 170.101562 123.113281 C 170.074219 123.136719 170.042969 123.160156 170.011719 123.183594 C 169.894531 123.28125 169.769531 123.378906 169.644531 123.476562 C 169.203125 123.8125 168.757812 124.136719 168.300781 124.445312 C 168.035156 124.628906 167.757812 124.816406 167.46875 125.003906 C 166.9375 125.355469 166.398438 125.695312 165.859375 126.03125 C 165.699219 126.128906 165.542969 126.226562 165.382812 126.324219 C 163.910156 127.230469 162.277344 128.199219 160.53125 129.253906 L 160.082031 129.527344 C 159.589844 129.828125 159.121094 130.117188 158.683594 130.390625 L 158.460938 130.53125 L 158.042969 130.796875 C 157.878906 130.902344 157.71875 131.007812 157.5625 131.109375 C 157.441406 131.183594 157.328125 131.257812 157.214844 131.332031 L 156.992188 131.480469 C 156.882812 131.550781 156.773438 131.621094 156.667969 131.695312 L 156.5625 131.761719 C 156.449219 131.835938 156.34375 131.910156 156.238281 131.980469 L 156.066406 132.097656 L 155.863281 132.238281 L 155.679688 132.367188 C 155.386719 132.574219 155.09375 132.785156 154.808594 133 L 154.707031 133.074219 C 154.59375 133.160156 154.484375 133.246094 154.378906 133.328125 L 154.242188 133.4375 C 154.007812 133.625 153.796875 133.804688 153.609375 133.976562 L 153.515625 134.058594 C 153.460938 134.109375 153.410156 134.15625 153.359375 134.207031 C 153.324219 134.238281 153.292969 134.273438 153.257812 134.304688 L 153.210938 134.351562 C 153.101562 134.460938 152.996094 134.570312 152.898438 134.683594 L 152.847656 134.742188 C 152.738281 134.867188 152.640625 134.992188 152.554688 135.109375 L 152.519531 135.164062 C 152.421875 135.304688 152.335938 135.457031 152.261719 135.613281 L 152.238281 135.667969 L 152.222656 135.707031 L 152.207031 135.738281 L 152.191406 135.785156 C 152.1875 135.800781 152.175781 135.828125 152.167969 135.851562 C 152.136719 135.941406 152.117188 136.03125 152.101562 136.125 L 152.09375 136.175781 L 152.085938 136.222656 L 152.082031 136.265625 L 152.082031 136.503906 C 152.082031 136.523438 152.082031 136.542969 152.089844 136.5625 C 152.089844 136.574219 152.089844 136.585938 152.09375 136.597656 C 152.09375 136.617188 152.097656 136.636719 152.097656 136.65625 L 152.113281 136.738281 L 152.113281 136.742188 C 152.117188 136.769531 152.125 136.796875 152.132812 136.820312 C 152.136719 136.847656 152.144531 136.878906 152.152344 136.90625 C 152.175781 136.988281 152.207031 137.074219 152.238281 137.15625 C 152.238281 137.160156 152.246094 137.167969 152.246094 137.175781 C 152.257812 137.195312 152.265625 137.214844 152.273438 137.234375 C 152.3125 137.320312 152.351562 137.402344 152.398438 137.484375 L 152.492188 137.65625 L 152.546875 137.742188 C 152.554688 137.753906 152.5625 137.769531 152.574219 137.78125 L 152.609375 137.816406 L 152.628906 137.832031 C 152.644531 137.839844 152.660156 137.847656 152.671875 137.859375 C 152.6875 137.863281 152.703125 137.871094 152.722656 137.878906 C 152.738281 137.882812 152.757812 137.890625 152.773438 137.894531 C 153.207031 137.992188 154.097656 137.632812 155.277344 137.007812 L 155.488281 136.898438 L 155.847656 136.703125 L 156.023438 136.605469 C 156.148438 136.535156 156.277344 136.460938 156.40625 136.386719 L 156.644531 136.253906 C 158.203125 135.355469 160.066406 134.199219 161.996094 133.074219 C 162.175781 132.96875 162.355469 132.863281 162.539062 132.757812 L 162.902344 132.527344 C 163.082031 132.421875 163.265625 132.316406 163.449219 132.214844 C 164.222656 131.773438 165.007812 131.351562 165.800781 130.945312 L 166.15625 130.765625 C 166.394531 130.648438 166.628906 130.535156 166.859375 130.425781 C 167.308594 130.210938 167.761719 130.011719 168.21875 129.820312 L 168.46875 129.71875 L 168.5 129.707031 C 169.828125 129.179688 171.035156 128.851562 172.011719 128.851562 C 172.222656 128.851562 172.433594 128.867188 172.640625 128.90625 L 172.648438 128.90625 C 172.714844 128.917969 172.773438 128.929688 172.835938 128.945312 L 172.847656 128.945312 C 172.9375 128.96875 173.027344 128.996094 173.113281 129.03125 C 173.179688 129.054688 173.246094 129.082031 173.308594 129.117188 C 173.589844 129.257812 173.828125 129.46875 174.007812 129.726562 C 174.019531 129.746094 174.035156 129.769531 174.046875 129.792969 C 174.113281 129.894531 174.171875 130 174.21875 130.109375 C 174.246094 130.175781 174.269531 130.238281 174.296875 130.3125 C 174.320312 130.382812 174.339844 130.453125 174.363281 130.527344 C 174.519531 131.09375 174.503906 131.695312 174.316406 132.253906 Z M 174.316406 132.253906 " fill-opacity="1" fill-rule="nonzero"/><path fill="#ffd21e" d="M 165.476562 91.5625 L 165.476562 91.195312 C 165.476562 59.835938 140.066406 34.414062 108.707031 34.414062 C 77.347656 34.414062 51.925781 59.835938 51.925781 91.195312 L 51.925781 91.316406 C 51.925781 91.398438 51.921875 91.480469 51.925781 91.5625 C 51.929688 91.683594 51.929688 91.804688 51.929688 91.925781 L 51.933594 92.195312 L 51.933594 92.292969 L 51.9375 92.425781 C 51.941406 92.5 51.941406 92.570312 51.941406 92.644531 L 51.949219 92.933594 L 51.960938 93.277344 L 51.964844 93.390625 L 51.980469 93.742188 L 51.980469 93.761719 L 52 94.175781 L 52 94.183594 C 52.007812 94.328125 52.015625 94.46875 52.023438 94.609375 C 52.03125 94.738281 52.042969 94.871094 52.050781 95 L 52.050781 95.023438 C 52.058594 95.136719 52.066406 95.246094 52.074219 95.359375 L 52.078125 95.386719 C 52.085938 95.496094 52.09375 95.605469 52.101562 95.710938 L 52.101562 95.734375 L 52.117188 95.921875 C 52.164062 96.460938 52.214844 97 52.277344 97.539062 L 52.277344 97.574219 L 52.324219 97.96875 L 52.375 98.386719 C 52.410156 98.664062 52.449219 98.9375 52.488281 99.214844 C 52.511719 99.382812 52.535156 99.550781 52.558594 99.714844 L 52.5625 99.734375 C 52.621094 100.113281 52.679688 100.488281 52.746094 100.863281 C 52.929688 101.949219 53.148438 103.03125 53.402344 104.105469 L 53.40625 104.125 L 53.429688 104.222656 C 53.449219 104.320312 53.472656 104.414062 53.496094 104.511719 L 53.539062 104.460938 C 55.1875 102.492188 57.550781 101.40625 60.195312 101.40625 C 62.316406 101.40625 64.492188 102.105469 66.671875 103.488281 C 68.117188 104.40625 69.71875 106.035156 71.363281 108.082031 C 72.886719 105.964844 75.019531 104.5625 77.460938 104.175781 C 77.925781 104.105469 78.394531 104.066406 78.867188 104.066406 C 84.4375 104.066406 87.792969 108.902344 89.0625 113.25 C 89.6875 114.71875 92.707031 121.410156 97.257812 125.9375 C 104.179688 132.851562 105.910156 139.984375 102.484375 147.621094 L 102.496094 147.621094 C 102.730469 147.648438 102.964844 147.671875 103.199219 147.695312 C 103.339844 147.707031 103.480469 147.722656 103.621094 147.734375 L 103.671875 147.738281 C 103.773438 147.746094 103.875 147.757812 103.980469 147.765625 L 104.265625 147.785156 C 104.535156 147.808594 104.808594 147.828125 105.082031 147.84375 L 105.296875 147.855469 L 105.46875 147.867188 L 105.574219 147.875 L 105.910156 147.890625 L 106 147.894531 L 106.355469 147.910156 L 106.742188 147.925781 L 107.058594 147.933594 L 107.109375 147.9375 C 107.175781 147.9375 107.246094 147.941406 107.3125 147.941406 L 107.382812 147.941406 C 107.824219 147.953125 108.265625 147.957031 108.707031 147.957031 L 109.175781 147.957031 L 109.511719 147.953125 C 109.59375 147.949219 109.675781 147.949219 109.757812 147.949219 L 110.003906 147.949219 C 110.046875 147.945312 110.089844 147.945312 110.136719 147.945312 L 110.269531 147.945312 L 110.53125 147.9375 L 110.929688 147.925781 L 111.363281 147.90625 C 111.488281 147.898438 111.613281 147.894531 111.738281 147.886719 L 111.875 147.878906 L 112.070312 147.867188 L 112.1875 147.863281 L 112.277344 147.855469 L 112.679688 147.828125 C 112.8125 147.820312 112.949219 147.8125 113.082031 147.800781 L 113.445312 147.773438 L 113.703125 147.75 L 113.984375 147.726562 C 114.273438 147.699219 114.558594 147.667969 114.847656 147.640625 C 115.027344 147.617188 115.210938 147.597656 115.390625 147.578125 L 115.710938 147.539062 C 112.339844 139.933594 114.085938 132.832031 120.976562 125.945312 C 125.519531 121.40625 128.539062 114.714844 129.167969 113.242188 C 130.4375 108.894531 133.789062 104.058594 139.363281 104.058594 C 139.835938 104.0625 140.304688 104.097656 140.769531 104.171875 C 143.207031 104.554688 145.34375 105.960938 146.867188 108.074219 C 148.515625 106.027344 150.113281 104.402344 151.558594 103.484375 C 153.738281 102.101562 155.914062 101.398438 158.03125 101.398438 C 160.367188 101.398438 162.484375 102.246094 164.082031 103.800781 C 164.167969 103.410156 164.253906 103.015625 164.335938 102.625 C 164.382812 102.378906 164.433594 102.132812 164.480469 101.886719 C 164.539062 101.585938 164.59375 101.28125 164.644531 100.976562 C 164.660156 100.894531 164.671875 100.8125 164.691406 100.726562 C 164.714844 100.597656 164.734375 100.46875 164.757812 100.339844 L 164.765625 100.289062 L 164.816406 99.953125 L 164.871094 99.609375 L 164.871094 99.605469 C 164.890625 99.460938 164.914062 99.316406 164.933594 99.171875 C 164.949219 99.0625 164.964844 98.953125 164.976562 98.839844 L 164.988281 98.777344 L 165.035156 98.421875 L 165.070312 98.117188 C 165.09375 97.914062 165.117188 97.714844 165.140625 97.511719 C 165.148438 97.433594 165.15625 97.351562 165.164062 97.269531 L 165.171875 97.207031 C 165.1875 97.070312 165.199219 96.9375 165.210938 96.804688 L 165.242188 96.492188 C 165.304688 95.800781 165.355469 95.109375 165.394531 94.417969 L 165.394531 94.414062 L 165.414062 94.046875 L 165.417969 93.964844 L 165.433594 93.617188 C 165.4375 93.484375 165.441406 93.351562 165.449219 93.21875 L 165.449219 93.207031 L 165.453125 93.113281 C 165.457031 93.03125 165.457031 92.945312 165.457031 92.867188 L 165.460938 92.832031 C 165.460938 92.753906 165.464844 92.675781 165.464844 92.597656 L 165.46875 92.53125 C 165.46875 92.449219 165.472656 92.371094 165.472656 92.292969 L 165.472656 92.226562 C 165.476562 92.128906 165.476562 92.027344 165.476562 91.925781 Z M 94.625 148.28125 C 99.121094 141.6875 98.800781 136.738281 92.632812 130.570312 C 86.460938 124.40625 82.871094 115.386719 82.871094 115.386719 C 82.871094 115.386719 81.53125 110.148438 78.472656 110.632812 C 75.417969 111.113281 73.175781 118.941406 79.574219 123.730469 C 85.972656 128.523438 78.300781 131.769531 75.835938 127.273438 C 73.375 122.777344 66.648438 111.21875 63.160156 109.007812 C 59.675781 106.796875 57.222656 108.035156 58.042969 112.59375 C 58.453125 114.855469 62.25 118.714844 65.796875 122.324219 C 69.394531 125.980469 72.738281 129.378906 72.023438 130.582031 C 70.605469 132.972656 65.609375 127.777344 65.609375 127.777344 C 65.609375 127.777344 49.96875 113.542969 46.566406 117.253906 C 43.425781 120.671875 48.265625 123.578125 55.726562 128.058594 C 56.359375 128.4375 57.011719 128.832031 57.683594 129.234375 C 66.214844 134.402344 66.878906 135.765625 65.667969 137.71875 C 65.222656 138.441406 62.367188 136.726562 58.851562 134.617188 C 52.863281 131.019531 44.960938 126.277344 43.847656 130.523438 C 42.882812 134.195312 48.691406 136.449219 53.960938 138.488281 C 58.351562 140.191406 62.367188 141.746094 61.777344 143.855469 C 61.167969 146.046875 57.847656 144.21875 54.21875 142.222656 C 50.148438 139.984375 45.6875 137.527344 44.226562 140.296875 C 41.46875 145.535156 63.265625 151.699219 63.445312 151.746094 C 70.488281 153.574219 88.371094 157.441406 94.625 148.28125 Z M 123.589844 148.28125 C 119.09375 141.6875 119.414062 136.738281 125.582031 130.570312 C 131.753906 124.40625 135.34375 115.386719 135.34375 115.386719 C 135.34375 115.386719 136.683594 110.148438 139.742188 110.632812 C 142.796875 111.113281 145.042969 118.941406 138.640625 123.730469 C 132.242188 128.523438 139.914062 131.769531 142.378906 127.273438 C 144.84375 122.777344 151.5625 111.21875 155.050781 109.007812 C 158.539062 106.796875 160.992188 108.035156 160.167969 112.59375 C 159.761719 114.855469 155.964844 118.714844 152.414062 122.324219 C 148.816406 125.980469 145.472656 129.378906 146.1875 130.582031 C 147.605469 132.972656 152.605469 127.773438 152.605469 127.773438 C 152.605469 127.773438 168.246094 113.539062 171.652344 117.25 C 174.789062 120.667969 169.949219 123.574219 162.488281 128.054688 C 161.855469 128.4375 161.203125 128.828125 160.53125 129.234375 C 152 134.398438 151.335938 135.761719 152.546875 137.714844 C 152.992188 138.4375 155.851562 136.722656 159.363281 134.613281 C 165.355469 131.019531 173.253906 126.277344 174.367188 130.519531 C 175.332031 134.195312 169.523438 136.445312 164.25 138.488281 C 159.863281 140.1875 155.847656 141.742188 156.4375 143.855469 C 157.046875 146.042969 160.363281 144.21875 163.992188 142.222656 C 168.0625 139.980469 172.527344 137.523438 173.984375 140.296875 C 176.746094 145.535156 154.945312 151.695312 154.769531 151.742188 C 147.726562 153.574219 129.839844 157.441406 123.589844 148.28125 Z M 123.589844 148.28125 " fill-opacity="1" fill-rule="evenodd"/><path fill="#32343d" d="M 127.148438 75.738281 C 128.03125 76.050781 128.691406 77.003906 129.316406 77.914062 C 130.164062 79.140625 130.953125 80.277344 132.160156 79.636719 C 133.585938 78.878906 134.757812 77.714844 135.523438 76.289062 C 136.289062 74.867188 136.613281 73.25 136.457031 71.640625 C 136.34375 70.4375 135.960938 69.277344 135.34375 68.238281 C 134.722656 67.199219 133.882812 66.3125 132.878906 65.640625 C 131.875 64.964844 130.734375 64.523438 129.542969 64.34375 C 128.347656 64.164062 127.128906 64.25 125.96875 64.601562 C 124.421875 65.066406 123.050781 65.980469 122.019531 67.226562 C 120.992188 68.472656 120.359375 69.996094 120.195312 71.605469 C 120.035156 73.210938 120.351562 74.832031 121.109375 76.257812 C 121.671875 77.3125 122.914062 76.816406 124.226562 76.289062 C 125.257812 75.878906 126.328125 75.449219 127.148438 75.738281 Z M 88.65625 75.738281 C 87.769531 76.050781 87.109375 77.007812 86.484375 77.914062 C 85.636719 79.140625 84.847656 80.28125 83.640625 79.636719 C 82.574219 79.070312 81.648438 78.273438 80.925781 77.304688 C 80.203125 76.335938 79.707031 75.21875 79.46875 74.035156 C 79.230469 72.851562 79.257812 71.628906 79.546875 70.457031 C 79.839844 69.285156 80.386719 68.191406 81.148438 67.253906 C 81.914062 66.320312 82.875 65.566406 83.96875 65.046875 C 85.058594 64.527344 86.25 64.257812 87.457031 64.253906 C 88.667969 64.253906 89.859375 64.519531 90.953125 65.03125 C 92.046875 65.546875 93.011719 66.296875 93.78125 67.226562 C 94.808594 68.472656 95.445312 69.996094 95.605469 71.605469 C 95.769531 73.210938 95.449219 74.832031 94.691406 76.257812 C 94.128906 77.3125 92.886719 76.816406 91.574219 76.289062 C 90.542969 75.878906 89.472656 75.449219 88.65625 75.738281 Z M 121.191406 110.765625 C 127.292969 105.960938 129.535156 98.113281 129.535156 93.277344 C 129.535156 89.457031 126.960938 90.660156 122.847656 92.699219 L 122.617188 92.8125 C 118.835938 94.683594 113.808594 97.175781 108.289062 97.175781 C 102.765625 97.175781 97.738281 94.683594 93.960938 92.8125 C 89.710938 90.707031 87.046875 89.386719 87.046875 93.28125 C 87.046875 98.265625 89.429688 106.453125 95.976562 111.210938 C 96.839844 109.457031 98.054688 107.902344 99.546875 106.640625 C 101.039062 105.378906 102.773438 104.4375 104.648438 103.878906 C 105.300781 103.683594 105.972656 104.808594 106.664062 105.960938 C 107.328125 107.070312 108.007812 108.207031 108.699219 108.207031 C 109.433594 108.207031 110.15625 107.085938 110.863281 105.996094 C 111.601562 104.851562 112.320312 103.738281 113.015625 103.960938 C 116.519531 105.085938 119.449219 107.523438 121.191406 110.765625 Z M 121.191406 110.765625 " fill-opacity="1" fill-rule="evenodd"/><path fill="#ff323d" d="M 121.191406 110.765625 C 118.011719 113.269531 113.789062 114.949219 108.289062 114.949219 C 103.121094 114.949219 99.082031 113.464844 95.976562 111.210938 C 96.839844 109.457031 98.054688 107.902344 99.546875 106.640625 C 101.039062 105.378906 102.777344 104.4375 104.648438 103.878906 C 105.929688 103.496094 107.289062 108.207031 108.695312 108.207031 C 110.203125 108.207031 111.65625 103.527344 113.015625 103.960938 C 116.519531 105.085938 119.449219 107.523438 121.191406 110.765625 Z M 121.191406 110.765625 " fill-opacity="1" fill-rule="nonzero"/><path fill="#ffad03" d="M 74.066406 82.539062 C 73.488281 82.925781 72.835938 83.199219 72.152344 83.335938 C 71.464844 83.476562 70.761719 83.476562 70.074219 83.34375 C 69.390625 83.207031 68.738281 82.9375 68.15625 82.550781 C 67.574219 82.160156 67.074219 81.664062 66.6875 81.082031 C 66.296875 80.5 66.027344 79.847656 65.890625 79.164062 C 65.757812 78.480469 65.757812 77.773438 65.894531 77.085938 C 66.03125 76.402344 66.304688 75.75 66.691406 75.171875 C 67.082031 74.589844 67.582031 74.09375 68.164062 73.707031 C 69.335938 72.929688 70.765625 72.648438 72.144531 72.925781 C 73.523438 73.199219 74.734375 74.011719 75.515625 75.179688 C 76.296875 76.347656 76.582031 77.78125 76.3125 79.160156 C 76.039062 80.539062 75.230469 81.753906 74.066406 82.539062 Z M 150.046875 82.539062 C 149.464844 82.925781 148.816406 83.199219 148.132812 83.335938 C 147.445312 83.476562 146.742188 83.476562 146.054688 83.34375 C 145.371094 83.207031 144.714844 82.9375 144.136719 82.550781 C 143.554688 82.160156 143.054688 81.664062 142.667969 81.082031 C 142.277344 80.5 142.007812 79.847656 141.871094 79.164062 C 141.738281 78.480469 141.738281 77.773438 141.875 77.085938 C 142.011719 76.402344 142.285156 75.75 142.671875 75.171875 C 143.0625 74.589844 143.5625 74.09375 144.144531 73.707031 C 145.316406 72.929688 146.746094 72.648438 148.125 72.925781 C 149.503906 73.199219 150.714844 74.011719 151.496094 75.179688 C 152.277344 76.347656 152.5625 77.78125 152.292969 79.160156 C 152.019531 80.539062 151.210938 81.753906 150.046875 82.539062 Z M 150.046875 82.539062 " fill-opacity="1" fill-rule="evenodd"/></svg>