<svg version="1.2" baseProfile="tiny-ps" xmlns="http://www.w3.org/2000/svg" viewBox="0 0 512 512">
<path d="M0 176C0 78.7979 78.7979 0 176 0H336C433.202 0 512 78.7979 512 176V336C512 433.202 433.202 512 336 512H176C78.7979 512 0 433.202 0 336V176Z" fill="#FF6900"/>
<path d="M141.742 36.6871C147.78 34.9998 156.886 33.0523 161.957 32.3613C169.287 31.3561 188.298 31.0779 254.462 31.0061C308.146 30.9522 340.779 31.2574 346.308 31.8766C351.019 32.3972 358.63 33.6536 363.227 34.6678C367.823 35.6729 375.329 37.8 379.926 39.3885C384.522 40.977 392.23 44.2438 397.064 46.658C401.898 49.0633 410.011 53.8558 415.082 57.3021C421.718 61.7984 427.782 67.1115 436.668 76.185C445.782 85.4918 450.713 91.3972 455.45 98.6757C458.983 104.105 463.756 112.587 466.05 117.523C468.353 122.459 471.244 129.522 472.483 133.228C473.723 136.926 475.533 143.19 476.518 147.139C477.493 151.088 478.899 158.555 479.638 163.743C481.249 175.064 471.731 184.396 460.296 184.411L431.562 184.447C395.685 184.492 382.729 184.77 384.32 185.462C385.533 185.991 390.868 188.549 396.186 191.16C401.503 193.763 409.22 198.197 413.324 201.015C417.429 203.824 424.126 209.011 428.204 212.538C432.282 216.056 438.733 222.572 442.557 227.015C446.38 231.457 451.855 238.727 454.738 243.169C457.621 247.612 461.919 255.079 464.283 259.772C466.647 264.466 470.163 273.145 472.105 279.068C474.048 284.991 476.526 294.083 477.616 299.261C479.348 307.455 479.603 311.252 479.594 328.429C479.576 345.517 479.304 349.439 477.59 357.597C476.491 362.776 474.268 371.266 472.633 376.444C470.998 381.623 467.166 390.92 464.116 397.086C461.066 403.261 456.347 411.535 453.613 415.484C450.889 419.433 445.712 426.101 442.117 430.293C438.514 434.484 432.247 440.784 428.178 444.293C424.117 447.793 417.833 452.703 414.203 455.207C410.582 457.702 404.649 461.381 401.02 463.374C397.398 465.375 391.466 468.256 387.836 469.782C384.215 471.307 377.289 473.721 372.455 475.139C367.621 476.557 359.509 478.46 354.438 479.367C345.912 480.874 338.389 481 256 481C186.566 481 165.139 480.74 159.32 479.815C155.207 479.169 148.686 477.823 144.818 476.827C140.951 475.831 134.623 473.901 130.756 472.537C126.889 471.173 119.972 468.211 115.375 465.967C110.787 463.724 103.466 459.488 99.1152 456.562C94.7647 453.636 88.6299 449.059 85.4922 446.393C82.3545 443.719 77.2393 438.908 74.1367 435.687C71.0342 432.474 66.4463 427.223 63.9414 424.01C61.4365 420.806 57.2002 414.748 54.5283 410.548C51.8564 406.348 48.2881 400.093 46.6006 396.637C44.9043 393.182 42.1357 386.523 40.4307 381.829C38.7256 377.135 36.5107 369.875 35.5 365.674C34.498 361.474 33.0654 353.909 32.3359 348.847C32.1786 347.768 32.0277 346.612 31.8876 345.374C30.8059 335.81 38.7997 327.977 48.4239 327.973L122.172 327.939C123.95 327.938 124.468 325.512 122.846 324.786C118.979 323.053 112.255 319.625 107.904 317.175C103.554 314.716 96.4346 309.995 92.084 306.692C87.7334 303.39 80.3857 296.829 75.7539 292.117C71.1221 287.406 64.8467 280.127 61.8057 275.927C58.7734 271.727 54.4404 265.068 52.1816 261.119C49.9229 257.17 46.5566 250.51 44.7021 246.31C42.8477 242.11 40.2373 235.253 38.8926 231.053C37.5479 226.853 35.8428 220.4 35.0869 216.694C34.3398 212.996 33.3115 206.534 32.8018 202.334C32.292 198.134 31.8789 189.455 31.8877 183.038C31.8877 176.621 32.4941 167.135 33.2324 161.948C33.9619 156.76 35.5527 148.889 36.7656 144.447C37.9697 140.004 40.334 132.735 42.0127 128.292C43.6914 123.85 47.1455 116.284 49.6768 111.483C52.2168 106.681 56.8662 99.0167 60.0039 94.4486C63.1416 89.8804 70.0674 81.6955 75.3848 76.2568C80.7021 70.8181 88.3398 63.9434 92.3477 60.9817C96.3643 58.0201 103.281 53.4699 107.729 50.8762C112.176 48.2735 119.172 44.7105 123.285 42.9425C127.398 41.1834 135.695 38.3654 141.742 36.6871Z" fill="#FFFEFE"/>
<path d="M216.469 127.873C218.829 126.647 223.127 125.249 226.028 124.761C228.928 124.273 232.185 124.036 233.279 124.234C234.374 124.432 237.485 124.946 240.201 125.368C242.623 125.756 246.785 127.726 254.172 133.214C255.772 134.403 258.029 134.178 259.319 132.659C260.585 131.169 264 128.809 266.901 127.411C270.487 125.671 275.022 124.854 281.074 124.84C286.638 124.84 291.583 125.618 294.259 126.95C296.619 128.123 300.522 130.945 302.948 133.213C305.361 135.494 308.407 139.436 309.699 141.967C311.281 145.079 313.285 146.859 315.843 147.439C317.926 147.914 322.317 150.287 325.573 152.726C329.357 155.548 332.825 159.767 335.159 164.395C337.36 168.785 338.784 173.703 338.758 176.907C338.719 181.575 339.602 183.091 346.418 190.092C351.943 195.775 354.804 200.047 356.584 205.255C357.955 209.276 358.997 215.737 358.918 219.758C358.839 223.753 357.758 229.976 356.518 233.602C355.279 237.228 353.222 241.671 351.93 243.491C349.978 246.246 349.781 247.974 350.743 254.039C351.442 258.469 351.376 264.362 350.572 269.201C349.833 273.552 347.632 280.013 345.654 283.56C343.676 287.12 339.378 292.38 336.121 295.268C332.864 298.155 327.815 301.531 324.914 302.757C321.275 304.313 318.572 306.818 316.186 310.839C314.274 314.043 310.714 318.223 308.275 320.121C305.822 322.033 301.445 324.564 298.544 325.764C295.433 327.043 289.763 327.927 284.7 327.887C278.53 327.861 274.284 326.977 269.538 324.749C265.912 323.048 261.759 320.372 260.308 318.79C258.858 317.207 257.078 315.915 256.353 315.915C255.628 315.915 253.848 317.207 252.397 318.79C250.947 320.372 246.794 323.048 243.168 324.749C238.303 327.043 234.242 327.848 227.676 327.861C222.784 327.874 216.851 327.096 214.491 326.147C212.131 325.197 207.912 322.679 205.09 320.543C202.282 318.407 198.63 314.294 196.981 311.393C194.845 307.648 191.945 305.104 186.935 302.599C183.058 300.66 177.244 296.217 174.013 292.71C170.783 289.203 166.656 283.085 164.837 279.09C162.028 272.933 161.514 269.861 161.475 258.653C161.435 247.75 160.921 244.44 158.482 239.535C156.873 236.279 154.869 230.042 154.025 225.691C152.746 219.059 152.852 216.501 154.658 209.869C155.845 205.518 158.745 199.203 161.092 195.828C163.452 192.452 167.012 188.444 169.003 186.928C171.851 184.752 172.814 182.682 173.473 177.237C173.934 173.427 175.121 168.39 176.11 166.03C177.099 163.67 179.828 159.596 182.188 156.959C184.548 154.335 188.701 151.065 191.417 149.707C194.133 148.349 197.245 147.241 198.339 147.241C199.434 147.241 201.464 145.013 202.862 142.297C204.273 139.581 206.936 135.718 208.795 133.727C210.654 131.736 214.109 129.099 216.469 127.873Z" fill="#24221F"/>
<path d="M211.92 343.959C211.775 342.654 212.487 340.874 213.502 340.004C214.847 338.844 226.384 338.422 256.287 338.395C287.588 338.382 297.621 338.765 298.9 340.043C299.81 340.966 300.562 342.76 300.548 344.025C300.535 345.291 299.586 347.216 298.452 348.31C296.698 349.985 290.119 350.288 256.26 350.288C222.349 350.288 215.836 349.985 214.161 348.31C213.067 347.216 212.065 345.265 211.92 343.959Z" fill="#24221F"/>
<path d="M222.6 363.236C222.56 362.023 223.523 360.098 224.709 358.951C226.542 357.197 231.367 356.881 256.445 356.881C280.969 356.881 286.362 357.223 287.996 358.858C289.091 359.939 289.961 361.878 289.935 363.143C289.921 364.409 288.88 366.506 287.627 367.798C285.584 369.92 282.512 370.145 256.353 370.079C230.748 370.013 227.069 369.736 224.999 367.719C223.707 366.479 222.626 364.449 222.6 363.236Z" fill="#24221F"/>
<path d="M245.436 382.947C243.788 381.299 242.456 379.216 242.469 378.306C242.496 377.093 246.174 376.658 256.353 376.658C263.974 376.658 270.197 376.948 270.197 377.317C270.197 377.673 269.604 379.163 268.878 380.613C268.153 382.064 265.635 384.213 263.275 385.386C260.348 386.85 257.315 387.272 253.716 386.731C250.815 386.296 247.097 384.595 245.436 382.947Z" fill="#24221F"/>
<path d="M264.395 143.471C265.582 141.756 268.997 139.225 271.99 137.827C275.813 136.047 279.228 135.48 283.382 135.916C286.638 136.258 290.805 137.669 292.611 139.04C294.43 140.425 297.239 143.879 298.847 146.701C300.469 149.536 301.788 153.636 301.788 155.812C301.774 157.987 300.746 160.809 299.493 162.088C298.254 163.353 297.648 164.843 298.162 165.384C298.663 165.924 300.944 164.434 303.198 162.074C305.466 159.714 308.156 157.789 309.198 157.789C310.226 157.789 313.298 158.897 316.014 160.255C318.73 161.6 321.908 164.118 323.068 165.858C324.228 167.586 325.929 171.37 326.852 174.27C328.131 178.305 328.184 180.705 327.05 184.489C326.232 187.205 324.096 190.62 322.277 192.07C320.471 193.52 318.981 194.997 318.981 195.366C318.981 195.735 319.574 196.025 320.299 196.025C320.784 196.025 322.149 195.559 325.161 194.179C328.693 192.562 332.85 193.019 335.831 195.511C338.521 197.766 342.212 202.512 344.019 206.059C346.221 210.41 347.289 214.656 347.275 219.099C347.262 222.725 346.247 228.368 345.021 231.624C343.795 234.881 340.841 239.443 338.468 241.737C336.095 244.045 332.073 246.51 329.529 247.222C325.507 248.356 325.336 248.554 328.21 248.791C330.016 248.923 333.141 248.976 335.132 248.91C338.428 248.778 338.837 249.279 339.562 254.368C340.011 257.454 340.011 262.648 339.562 265.905C339.114 269.162 336.82 275.082 334.473 279.037C331.559 283.942 328.118 287.528 323.701 290.244C318.045 293.738 315.988 294.252 307.668 294.252C302.434 294.252 298.373 294.701 298.676 295.241C298.966 295.782 301.273 297.127 303.818 298.208C306.363 299.289 308.433 300.634 308.446 301.175C308.446 301.715 306.521 304.497 304.161 307.345C301.801 310.193 297.489 313.595 294.589 314.9C291.688 316.205 287.232 317.273 284.7 317.273C282.169 317.273 275.33 313.581 272 311.5C264.581 306.863 262.273 297.348 262.273 288.599V225.362C262.273 154.889 262.497 146.253 264.395 143.471Z" fill="#FEFEFE"/>
<path d="M214.556 144.604C215.927 142.798 219.026 139.977 221.439 138.342C224.102 136.548 227.846 135.375 230.879 135.375C233.648 135.375 238.091 136.417 240.741 137.682C243.405 138.948 246.688 141.466 248.046 143.286C250.364 146.385 250.508 150.282 250.498 296.62C250.498 300.169 249.452 303.741 247.492 306.699C245.844 309.204 242.706 312.289 240.53 313.581C238.355 314.874 233.898 316.311 230.642 316.785C226.159 317.431 223.1 316.97 218.116 314.887C213.541 312.988 210.416 310.509 207.898 306.818C205.907 303.904 204.575 300.911 204.931 300.186C205.3 299.46 206.329 298.854 207.239 298.841C208.148 298.828 210.218 297.786 211.84 296.533C214.714 294.305 214.569 294.266 206.566 294.727C199.974 295.11 197.06 294.582 191.865 292.09C188.305 290.376 183.598 286.909 181.423 284.364C179.234 281.819 176.373 277.376 175.068 274.475C173.709 271.456 172.681 266.09 172.681 261.95C172.668 257.955 172.958 253.366 173.301 251.731C173.855 249.187 174.83 248.752 180.21 248.646C185.154 248.567 185.787 248.33 183.176 247.539C181.37 246.998 178.548 245.864 176.913 245.02C175.278 244.176 172.18 240.379 170.018 236.569C167.869 232.758 165.719 227.273 165.258 224.373C164.783 221.472 165.073 216.132 165.878 212.506C166.84 208.248 169.108 203.87 172.299 200.139C175.015 196.948 178.14 193.863 179.221 193.257C180.421 192.597 183.4 193.059 186.789 194.43C189.953 195.709 192.801 196.184 193.381 195.511C193.935 194.878 193.5 194.008 192.406 193.586C191.324 193.164 189.373 191.608 188.094 190.132C186.802 188.668 185.404 185.372 184.969 182.84C184.534 180.309 184.903 175.853 185.813 172.952C186.71 170.051 189.452 165.753 191.905 163.393C194.357 161.033 198.444 158.659 201.002 158.119C204.958 157.275 205.92 157.565 207.595 160.097C208.663 161.732 210.733 163.657 212.183 164.382C214.741 165.661 214.754 165.595 212.618 162.074C211.036 159.477 210.64 156.959 211.247 153.175C211.695 150.274 213.198 146.424 214.556 144.604Z" fill="#FFA160"/>
</svg>
