<svg xmlns="http://www.w3.org/2000/svg" xmlns:xlink="http://www.w3.org/1999/xlink" width="500" height="500" preserveAspectRatio="xMidYMid meet" version="1.0" viewBox="0 0 375 375" zoomAndPan="magnify"><defs><clipPath id="ac786f0c13"><path d="M 0 1.277344 L 375 1.277344 L 375 375 L 0 375 Z M 0 1.277344" clip-rule="nonzero"/></clipPath><clipPath id="fe3a0499a5"><path d="M 75 1.277344 L 300 1.277344 C 341.421875 1.277344 375 34.855469 375 76.277344 L 375 300 C 375 341.421875 341.421875 375 300 375 L 75 375 C 33.578125 375 0 341.421875 0 300 L 0 76.277344 C 0 34.855469 33.578125 1.277344 75 1.277344 Z M 75 1.277344" clip-rule="nonzero"/></clipPath><clipPath id="52a15f4d2e"><path d="M 37.5 57.75 L 337.5 57.75 L 337.5 317 L 37.5 317 Z M 37.5 57.75" clip-rule="nonzero"/></clipPath></defs><g clip-path="url(#ac786f0c13)"><g clip-path="url(#fe3a0499a5)"><path fill="#242938" fill-opacity="1" fill-rule="nonzero" d="M 0 1.277344 L 375 1.277344 L 375 375 L 0 375 Z M 0 1.277344"/></g></g><path fill="#fff" fill-opacity="1" fill-rule="nonzero" d="M 190.304688 290.378906 C 190.347656 290.464844 190.601562 292.027344 190.8125 293.417969 C 187.015625 295.484375 179.632812 300.039062 174.402344 301.347656 C 173.433594 299.617188 171.40625 295.863281 171.40625 295.863281 C 171.40625 295.863281 170.945312 290.550781 172.882812 289.832031 L 171.492188 289.746094 C 171.492188 289.746094 173.6875 280.511719 174.316406 279.539062 C 174.949219 278.570312 177.945312 270.429688 177.945312 270.429688 C 177.945312 270.429688 178.957031 268.234375 178.957031 267.644531 C 178.917969 267.054688 183.515625 261.191406 183.640625 261.0625 C 183.765625 260.9375 184.273438 258.785156 184.273438 258.785156 C 184.273438 258.785156 185.496094 261.234375 185.496094 261.359375 C 185.496094 261.484375 186.171875 274.394531 187.941406 279.117188 C 189.714844 283.882812 191.148438 289.242188 191.148438 289.242188 L 191.445312 290.589844 C 191.445312 290.550781 190.261719 290.253906 190.304688 290.378906 Z M 190.304688 290.378906"/><g clip-path="url(#52a15f4d2e)"><path fill="#fff" fill-opacity="1" fill-rule="nonzero" d="M 337.347656 207.621094 C 337.347656 124.859375 270.28125 57.75 187.519531 57.75 C 104.761719 57.75 37.652344 124.859375 37.652344 207.621094 C 37.652344 250.390625 55.578125 288.945312 84.304688 316.28125 C 86.917969 316.953125 90.460938 317.25 94.34375 315.519531 C 102.90625 311.640625 105.730469 311.511719 109.191406 310.375 C 112.648438 309.234375 119.1875 299.535156 125.9375 297.804688 C 130.914062 296.539062 149.472656 297.382812 160.988281 299.070312 C 161.074219 298.605469 161.328125 298.015625 161.875 297.257812 C 163.941406 294.472656 164.828125 289.535156 164.828125 289.535156 L 165.585938 289.789062 C 165.585938 289.789062 166.597656 284.390625 166.429688 278.824219 C 166.21875 273.253906 169.128906 266.632812 169.128906 266.632812 C 169.128906 266.632812 171.28125 262.414062 172.421875 259.671875 C 173.515625 256.929688 174.277344 247.652344 174.277344 247.652344 L 171.828125 248.074219 L 171.578125 245.035156 L 173.476562 222.554688 L 173.433594 222.554688 L 172.335938 217.785156 L 171.957031 215.972656 L 170.945312 215.171875 L 171.027344 213.777344 C 171.027344 213.777344 171.617188 212.597656 171.617188 212.429688 C 171.617188 212.261719 171.703125 211.5 171.703125 211.417969 C 171.703125 211.332031 172.167969 210.65625 172.167969 210.65625 L 172.292969 208.757812 C 172.292969 208.757812 172 208.210938 171.871094 208.167969 C 171.746094 208.125 172.632812 207.242188 172.632812 207.15625 C 172.632812 207.070312 169.171875 207.28125 169.171875 207.28125 L 165.082031 206.355469 L 165.542969 211.753906 L 165.460938 211.460938 L 165.082031 211.796875 L 164.828125 206.269531 L 163.898438 205.933594 L 162.253906 204.753906 C 162.253906 204.753906 161.117188 203.066406 161.117188 202.980469 C 161.117188 202.894531 160.734375 202.726562 160.734375 202.726562 L 160.609375 203.316406 L 161.199219 204.414062 L 162.296875 215.214844 L 161.410156 214.832031 L 160.1875 215.804688 L 159.511719 204.878906 L 159.976562 203.148438 C 159.976562 203.148438 159.722656 202.222656 159.640625 202.179688 C 159.554688 202.136719 158.585938 201.546875 158.585938 201.546875 C 158.585938 201.546875 158.164062 199.605469 158.078125 199.5625 C 158.035156 199.523438 157.488281 199.945312 157.445312 199.945312 C 157.402344 199.984375 156.601562 200.449219 156.347656 200.617188 C 156.519531 200.449219 156.8125 200.027344 156.8125 200.027344 L 157.320312 198.929688 L 158.121094 198.679688 C 158.121094 198.679688 157.953125 198.046875 157.867188 197.875 C 157.78125 197.707031 157.277344 196.105469 157.277344 196.105469 L 156.6875 194.207031 C 156.6875 194.207031 156.222656 194.164062 156.054688 194.039062 C 155.886719 193.910156 156.433594 191.507812 156.433594 191.507812 L 156.011719 189.90625 L 156.308594 189.398438 L 156.601562 187.414062 L 157.191406 185.433594 L 157.488281 181.257812 C 157.488281 181.257812 157.78125 179.273438 157.78125 179.191406 C 157.78125 179.0625 159.007812 176.703125 159.007812 176.703125 C 159.007812 176.703125 158.878906 174.003906 158.964844 173.832031 C 159.046875 173.664062 159.089844 172.1875 159.089844 172.105469 C 159.089844 171.976562 159.300781 171.429688 159.34375 171.300781 C 159.386719 171.175781 160.398438 171.007812 160.398438 171.007812 L 161.074219 170.964844 L 161.539062 169.109375 L 164.742188 168.222656 C 164.742188 168.222656 167.824219 167.042969 167.90625 167 C 167.949219 166.957031 169.507812 166.453125 169.550781 166.492188 C 169.59375 166.535156 170.902344 166.199219 170.902344 166.199219 L 170.101562 165.226562 L 171.449219 163.835938 L 171.789062 164.511719 C 171.789062 164.511719 171.578125 164.679688 171.703125 165.015625 C 171.828125 165.3125 172.460938 164.765625 172.460938 164.765625 C 172.460938 164.765625 172.882812 164.34375 173.222656 164.003906 L 172.800781 163.878906 C 172.800781 163.878906 173.265625 163.667969 173.8125 163.371094 L 174.191406 162.867188 L 175.625 162.066406 L 176.003906 162.234375 C 176.214844 161.855469 177.441406 159.492188 177.777344 159.40625 C 178.15625 159.363281 177.523438 158.4375 176.214844 157.085938 C 174.910156 155.738281 174.992188 150.886719 174.65625 150.421875 C 174.316406 150 174.527344 149.03125 174.527344 148.988281 C 174.570312 148.945312 174.023438 148.691406 174.023438 148.691406 C 174.023438 148.691406 173.347656 149.832031 172.84375 150.589844 C 172.335938 151.351562 174.023438 153.882812 173.265625 154.429688 C 172.503906 155.019531 173.601562 158.605469 173.601562 158.605469 L 173.054688 158.351562 L 173.476562 159.152344 C 173.476562 159.152344 169.46875 160.628906 167.78125 154.894531 C 166.09375 149.199219 168.707031 147.003906 171.617188 145.699219 C 174.527344 144.390625 174.488281 146.585938 174.488281 146.585938 C 174.488281 146.585938 175.246094 146.921875 175.582031 147.046875 C 175.921875 147.175781 176.386719 147.046875 176.511719 147.089844 C 176.636719 147.132812 177.988281 144.347656 178.535156 144.011719 C 179.085938 143.671875 184.230469 142.703125 184.316406 142.703125 C 184.359375 142.703125 183.9375 142.578125 183.9375 142.578125 L 184.695312 142.492188 L 184.398438 142.367188 C 184.484375 142.367188 184.949219 142.40625 187.519531 142.578125 C 191.148438 142.871094 191.402344 144.304688 193.976562 145.613281 C 196.546875 146.921875 194.945312 149.15625 194.945312 149.15625 C 196.125 151.222656 195.070312 155.273438 195.070312 155.273438 C 196 158.058594 196.210938 159.703125 196.210938 159.703125 C 196.210938 159.703125 194.4375 159.914062 194.609375 159.957031 C 194.777344 159.996094 194.734375 161.304688 194.734375 161.304688 L 193.765625 161.011719 C 193.765625 161.011719 193.554688 161.433594 194.015625 161.472656 C 194.480469 161.515625 194.015625 162.234375 193.847656 162.148438 C 193.679688 162.066406 193.511719 162.023438 193.425781 162.105469 C 193.132812 162.445312 192.960938 163.960938 192.246094 164.46875 C 191.527344 164.976562 188.238281 163.835938 188.152344 163.835938 C 188.027344 163.835938 185.664062 164.976562 185.328125 165.648438 C 185.074219 166.15625 186.71875 168.054688 187.351562 168.730469 C 187.394531 168.769531 187.4375 168.8125 187.480469 168.898438 C 187.4375 168.855469 187.394531 168.8125 187.351562 168.730469 C 186.636719 168.011719 185.875 167.589844 185.199219 167.335938 L 186.425781 169.191406 C 186.425781 169.191406 188.957031 172.0625 191.023438 174.84375 C 193.089844 177.585938 191.867188 179.570312 191.824219 179.652344 C 191.90625 179.613281 194.015625 178.683594 194.3125 178.515625 C 194.609375 178.347656 197.769531 176.320312 197.769531 176.320312 C 197.769531 176.320312 202.199219 172.566406 202.285156 172.398438 C 202.410156 172.230469 203.632812 171.21875 204.140625 170.921875 C 204.6875 170.667969 207.472656 166.28125 208.527344 166.15625 C 209.582031 166.03125 213 165.015625 213 165.015625 L 218.058594 156.75 C 218.058594 156.75 221.308594 159.152344 221.519531 159.28125 C 221.730469 159.40625 231.894531 166.875 231.894531 166.875 L 239.488281 173.03125 L 242.90625 176.492188 L 242.1875 177.292969 C 242.230469 177.292969 243.074219 176.996094 243.199219 176.914062 C 243.371094 176.871094 244.128906 177.25 244.128906 177.25 L 237.210938 183.871094 L 229.152344 192.222656 L 217.34375 204.121094 L 208.863281 212.597656 L 208.359375 212.386719 L 207.640625 212.089844 L 206.503906 212.722656 L 205.28125 212.722656 L 206.796875 210.574219 C 206.796875 210.574219 209.246094 207.578125 209.582031 207.324219 C 209.878906 207.070312 209.625 206.859375 209.625 206.859375 L 208.863281 205.425781 C 208.863281 205.425781 206.628906 202.347656 206.585938 202.050781 C 206.542969 201.800781 205.617188 200.871094 205.53125 200.871094 C 205.40625 200.828125 203.507812 198.929688 203.507812 198.929688 L 202.496094 198.847656 L 199.796875 198.46875 C 199.796875 198.46875 196.421875 198.171875 196.253906 198.171875 C 196.082031 198.171875 194.566406 197.75 194.4375 197.835938 C 194.3125 197.917969 196.125 204.792969 196.125 204.792969 L 196.167969 208.421875 L 197.179688 208.464844 L 197.433594 210.699219 L 197.054688 213.144531 L 197.898438 216.859375 L 197.980469 221.328125 L 200.511719 230.230469 L 202.03125 237.824219 L 202.328125 246.722656 C 200.34375 248.917969 195.871094 246.089844 195.871094 246.089844 C 195.871094 246.089844 196.253906 248.789062 195.914062 250.5625 C 195.621094 252.332031 194.480469 264.144531 194.820312 265.199219 C 195.15625 266.210938 196.253906 278.992188 196.464844 282.28125 C 196.675781 285.53125 197.730469 290.71875 197.730469 290.71875 L 198.742188 290.675781 C 198.742188 291.222656 198.824219 292.109375 199.332031 293.121094 C 202.15625 293.121094 205.238281 292.699219 207.09375 291.308594 C 210.933594 288.523438 216.753906 287.554688 217.511719 286.878906 C 218.3125 286.203125 233.289062 281.183594 233.160156 279.414062 C 232.992188 277.640625 233.582031 279.117188 234.976562 280.214844 C 236.410156 281.3125 240.289062 279.960938 243.285156 280.339844 C 246.28125 280.761719 242.441406 276.628906 244.464844 275.53125 C 246.492188 274.4375 247.796875 273.171875 249.527344 272.75 C 251.257812 272.328125 253.871094 269.078125 254.210938 269.078125 C 254.589844 269.078125 273.488281 262.792969 273.613281 261.738281 C 273.738281 260.640625 277.664062 262.078125 278.507812 262.539062 C 279.390625 263.003906 286.902344 265.453125 290.992188 266.714844 C 295.042969 268.023438 304.363281 269.417969 306.894531 270.640625 C 309.382812 271.820312 314.191406 272.496094 315.414062 273.128906 C 316.636719 273.804688 318.113281 280.933594 318.113281 280.933594 C 318.113281 280.933594 318.074219 281.101562 317.988281 281.355469 C 330.347656 259.589844 337.347656 234.40625 337.347656 207.621094 Z M 156.265625 200.578125 C 156.222656 200.578125 156.222656 200.617188 156.222656 200.617188 C 156.179688 200.617188 156.179688 200.617188 156.265625 200.578125 Z M 156.265625 200.578125"/></g><path fill="#fff" fill-opacity="1" fill-rule="nonzero" d="M 156.265625 200.578125 C 156.222656 200.578125 156.222656 200.617188 156.222656 200.617188 C 156.179688 200.617188 156.179688 200.617188 156.265625 200.578125 Z M 156.265625 200.578125"/><path fill="#fff" fill-opacity="1" fill-rule="nonzero" d="M 172.546875 163.835938 C 172.546875 163.835938 173.011719 163.625 173.558594 163.328125 L 173.433594 163.5 C 173.433594 163.5 173.222656 163.710938 172.96875 163.960938 Z M 172.546875 163.835938"/><path fill="#fff" fill-opacity="1" fill-rule="nonzero" d="M 175.371094 162.023438 L 175.753906 162.191406 C 175.753906 162.234375 175.710938 162.234375 175.710938 162.234375 C 175.710938 162.277344 174.488281 162.867188 173.558594 163.328125 L 173.9375 162.824219 Z M 175.371094 162.023438"/><path fill="#fff" fill-opacity="1" fill-rule="nonzero" d="M 187.269531 168.8125 C 187.226562 168.769531 187.183594 168.730469 187.140625 168.644531 C 187.183594 168.730469 187.226562 168.769531 187.269531 168.8125 Z M 187.269531 168.8125"/><path fill="#fff" fill-opacity="1" fill-rule="nonzero" d="M 175.753906 162.191406 C 175.753906 162.234375 175.710938 162.234375 175.710938 162.234375 C 175.710938 162.277344 174.488281 162.867188 173.558594 163.328125 L 173.9375 162.824219 L 175.371094 162.023438 Z M 175.753906 162.191406"/><path fill="#fff" fill-opacity="1" fill-rule="nonzero" d="M 156.265625 200.578125 C 156.222656 200.578125 156.222656 200.617188 156.222656 200.617188 C 156.179688 200.617188 156.179688 200.617188 156.265625 200.578125 Z M 156.265625 200.578125"/><path fill="#fff" fill-opacity="1" fill-rule="nonzero" d="M 173.558594 163.328125 L 173.433594 163.5 C 173.433594 163.5 173.222656 163.710938 172.96875 163.960938 L 172.546875 163.835938 C 172.546875 163.835938 172.96875 163.625 173.558594 163.328125 Z M 173.558594 163.328125"/><path fill="#fff" fill-opacity="1" fill-rule="nonzero" d="M 187.269531 168.8125 C 187.226562 168.769531 187.183594 168.730469 187.140625 168.644531 C 187.183594 168.730469 187.226562 168.769531 187.269531 168.8125 Z M 187.269531 168.8125"/></svg>