<svg xmlns="http://www.w3.org/2000/svg" xmlns:xlink="http://www.w3.org/1999/xlink" width="500" zoomAndPan="magnify" viewBox="0 0 375 374.999991" height="500" preserveAspectRatio="xMidYMid meet" version="1.0"><defs><clipPath id="23df322d83"><path d="M 18.75 0 L 356.25 0 C 366.605469 0 375 8.394531 375 18.75 L 375 356.25 C 375 366.605469 366.605469 375 356.25 375 L 18.75 375 C 8.394531 375 0 366.605469 0 356.25 L 0 18.75 C 0 8.394531 8.394531 0 18.75 0 Z M 18.75 0 " clip-rule="nonzero"/></clipPath><clipPath id="dae7638a90"><path d="M 14.089844 37.5 L 363.589844 37.5 L 363.589844 339.75 L 14.089844 339.75 Z M 14.089844 37.5 " clip-rule="nonzero"/></clipPath></defs><g clip-path="url(#23df322d83)"><rect x="-37.5" width="450" fill="#242938" y="-37.499999" height="449.999989" fill-opacity="1"/></g><path fill="#f2f2f2" d="M 192.226562 308.695312 C 192.277344 308.792969 192.570312 310.613281 192.816406 312.234375 C 188.390625 314.644531 179.785156 319.957031 173.6875 321.480469 C 172.558594 319.464844 170.195312 315.089844 170.195312 315.089844 C 170.195312 315.089844 169.65625 308.890625 171.917969 308.054688 L 170.296875 307.957031 C 170.296875 307.957031 172.851562 297.1875 173.589844 296.058594 C 174.328125 294.925781 177.820312 285.4375 177.820312 285.4375 C 177.820312 285.4375 179 282.878906 179 282.191406 C 178.949219 281.503906 184.308594 274.667969 184.457031 274.519531 C 184.605469 274.371094 185.195312 271.863281 185.195312 271.863281 C 185.195312 271.863281 186.621094 274.714844 186.621094 274.863281 C 186.621094 275.011719 187.40625 290.058594 189.472656 295.566406 C 191.539062 301.121094 193.210938 307.367188 193.210938 307.367188 L 193.554688 308.941406 C 193.554688 308.890625 192.175781 308.546875 192.226562 308.695312 Z M 192.226562 308.695312 " fill-opacity="1" fill-rule="nonzero"/><g clip-path="url(#dae7638a90)"><path fill="#f2f2f2" d="M 363.648438 212.214844 C 363.648438 115.734375 285.460938 37.5 188.980469 37.5 C 92.5 37.5 14.265625 115.734375 14.265625 212.214844 C 14.265625 262.078125 35.164062 307.023438 68.652344 338.886719 C 71.699219 339.675781 75.832031 340.019531 80.355469 338.003906 C 90.339844 333.480469 93.632812 333.332031 97.664062 332.003906 C 101.695312 330.675781 109.320312 319.367188 117.1875 317.351562 C 122.988281 315.875 144.625 316.859375 158.050781 318.824219 C 158.148438 318.285156 158.445312 317.597656 159.082031 316.710938 C 161.492188 313.464844 162.527344 307.710938 162.527344 307.710938 L 163.410156 308.007812 C 163.410156 308.007812 164.589844 301.710938 164.394531 295.222656 C 164.148438 288.730469 167.542969 281.011719 167.542969 281.011719 C 167.542969 281.011719 170.050781 276.09375 171.378906 272.898438 C 172.65625 269.699219 173.539062 258.882812 173.539062 258.882812 L 170.6875 259.375 L 170.394531 255.832031 L 172.605469 229.625 L 172.558594 229.625 L 171.277344 224.066406 L 170.835938 221.953125 L 169.65625 221.019531 L 169.753906 219.394531 C 169.753906 219.394531 170.441406 218.019531 170.441406 217.820312 C 170.441406 217.625 170.542969 216.738281 170.542969 216.640625 C 170.542969 216.542969 171.082031 215.757812 171.082031 215.757812 L 171.230469 213.542969 C 171.230469 213.542969 170.886719 212.90625 170.738281 212.855469 C 170.589844 212.804688 171.621094 211.773438 171.621094 211.675781 C 171.621094 211.578125 167.589844 211.824219 167.589844 211.824219 L 162.820312 210.742188 L 163.363281 217.035156 L 163.261719 216.691406 L 162.820312 217.085938 L 162.527344 210.640625 L 161.445312 210.25 L 159.527344 208.871094 C 159.527344 208.871094 158.199219 206.90625 158.199219 206.808594 C 158.199219 206.707031 157.753906 206.511719 157.753906 206.511719 L 157.609375 207.199219 L 158.296875 208.480469 L 159.574219 221.066406 L 158.542969 220.625 L 157.117188 221.753906 L 156.328125 209.019531 L 156.871094 207.003906 C 156.871094 207.003906 156.574219 205.921875 156.476562 205.871094 C 156.378906 205.824219 155.246094 205.136719 155.246094 205.136719 C 155.246094 205.136719 154.757812 202.871094 154.65625 202.824219 C 154.609375 202.773438 153.96875 203.265625 153.921875 203.265625 C 153.871094 203.316406 152.9375 203.855469 152.640625 204.054688 C 152.839844 203.855469 153.183594 203.363281 153.183594 203.363281 L 153.773438 202.085938 L 154.707031 201.789062 C 154.707031 201.789062 154.511719 201.054688 154.410156 200.855469 C 154.3125 200.660156 153.722656 198.792969 153.722656 198.792969 L 153.035156 196.578125 C 153.035156 196.578125 152.492188 196.527344 152.296875 196.382812 C 152.101562 196.234375 152.738281 193.429688 152.738281 193.429688 L 152.25 191.5625 L 152.59375 190.972656 L 152.9375 188.660156 L 153.625 186.351562 L 153.96875 181.480469 C 153.96875 181.480469 154.3125 179.171875 154.3125 179.074219 C 154.3125 178.925781 155.738281 176.171875 155.738281 176.171875 C 155.738281 176.171875 155.59375 173.023438 155.691406 172.828125 C 155.789062 172.628906 155.839844 170.910156 155.839844 170.8125 C 155.839844 170.664062 156.082031 170.023438 156.132812 169.875 C 156.183594 169.730469 157.363281 169.53125 157.363281 169.53125 L 158.148438 169.484375 L 158.691406 167.320312 L 162.425781 166.289062 C 162.425781 166.289062 166.015625 164.910156 166.117188 164.859375 C 166.164062 164.8125 167.984375 164.222656 168.03125 164.269531 C 168.082031 164.320312 169.605469 163.925781 169.605469 163.925781 L 168.671875 162.796875 L 170.246094 161.171875 L 170.640625 161.960938 C 170.640625 161.960938 170.394531 162.15625 170.542969 162.550781 C 170.6875 162.894531 171.425781 162.253906 171.425781 162.253906 C 171.425781 162.253906 171.917969 161.761719 172.3125 161.371094 L 171.820312 161.222656 C 171.820312 161.222656 172.359375 160.976562 173 160.632812 L 173.441406 160.042969 L 175.113281 159.109375 L 175.558594 159.304688 C 175.800781 158.863281 177.230469 156.109375 177.621094 156.007812 C 178.066406 155.960938 177.328125 154.878906 175.800781 153.304688 C 174.277344 151.730469 174.375 146.078125 173.984375 145.535156 C 173.589844 145.042969 173.835938 143.914062 173.835938 143.863281 C 173.886719 143.816406 173.246094 143.519531 173.246094 143.519531 C 173.246094 143.519531 172.457031 144.847656 171.867188 145.730469 C 171.277344 146.617188 173.246094 149.566406 172.359375 150.207031 C 171.476562 150.894531 172.753906 155.074219 172.753906 155.074219 L 172.113281 154.78125 L 172.605469 155.714844 C 172.605469 155.714844 167.933594 157.4375 165.96875 150.75 C 164 144.109375 167.050781 141.550781 170.441406 140.027344 C 173.835938 138.503906 173.785156 141.0625 173.785156 141.0625 C 173.785156 141.0625 174.671875 141.453125 175.066406 141.601562 C 175.457031 141.75 176 141.601562 176.148438 141.652344 C 176.292969 141.699219 177.867188 138.453125 178.507812 138.0625 C 179.148438 137.667969 185.144531 136.535156 185.242188 136.535156 C 185.292969 136.535156 184.800781 136.390625 184.800781 136.390625 L 185.6875 136.289062 L 185.34375 136.144531 C 185.441406 136.144531 185.980469 136.191406 188.980469 136.390625 C 193.210938 136.734375 193.503906 138.40625 196.503906 139.929688 C 199.503906 141.453125 197.636719 144.058594 197.636719 144.058594 C 199.011719 146.46875 197.785156 151.191406 197.785156 151.191406 C 198.867188 154.4375 199.109375 156.355469 199.109375 156.355469 C 199.109375 156.355469 197.046875 156.601562 197.242188 156.648438 C 197.4375 156.699219 197.390625 158.222656 197.390625 158.222656 L 196.257812 157.878906 C 196.257812 157.878906 196.011719 158.371094 196.554688 158.417969 C 197.09375 158.46875 196.554688 159.304688 196.359375 159.207031 C 196.160156 159.109375 195.964844 159.058594 195.867188 159.15625 C 195.523438 159.550781 195.324219 161.320312 194.488281 161.910156 C 193.652344 162.5 189.816406 161.171875 189.71875 161.171875 C 189.570312 161.171875 186.816406 162.5 186.425781 163.289062 C 186.128906 163.878906 188.046875 166.089844 188.785156 166.878906 C 188.832031 166.925781 188.882812 166.976562 188.933594 167.074219 C 188.882812 167.023438 188.832031 166.976562 188.785156 166.878906 C 187.949219 166.042969 187.0625 165.550781 186.277344 165.253906 L 187.703125 167.417969 C 187.703125 167.417969 190.652344 170.761719 193.0625 174.007812 C 195.472656 177.203125 194.046875 179.515625 193.996094 179.613281 C 194.09375 179.5625 196.554688 178.480469 196.898438 178.285156 C 197.242188 178.089844 200.929688 175.730469 200.929688 175.730469 C 200.929688 175.730469 206.09375 171.351562 206.191406 171.15625 C 206.339844 170.957031 207.765625 169.777344 208.355469 169.433594 C 208.996094 169.140625 212.242188 164.023438 213.46875 163.878906 C 214.699219 163.730469 218.683594 162.550781 218.683594 162.550781 L 224.582031 152.910156 C 224.582031 152.910156 228.371094 155.714844 228.617188 155.863281 C 228.863281 156.007812 240.710938 164.714844 240.710938 164.714844 L 249.5625 171.894531 L 253.546875 175.925781 L 252.710938 176.859375 C 252.761719 176.859375 253.742188 176.515625 253.890625 176.417969 C 254.089844 176.367188 254.972656 176.808594 254.972656 176.808594 L 246.910156 184.53125 L 237.515625 194.265625 L 223.746094 208.132812 L 213.863281 218.019531 L 213.273438 217.773438 L 212.4375 217.429688 L 211.109375 218.164062 L 209.683594 218.164062 L 211.453125 215.65625 C 211.453125 215.65625 214.304688 212.167969 214.699219 211.871094 C 215.042969 211.578125 214.75 211.332031 214.75 211.332031 L 213.863281 209.660156 C 213.863281 209.660156 211.257812 206.070312 211.207031 205.726562 C 211.160156 205.429688 210.078125 204.347656 209.980469 204.347656 C 209.832031 204.296875 207.617188 202.085938 207.617188 202.085938 L 206.4375 201.988281 L 203.292969 201.546875 C 203.292969 201.546875 199.355469 201.199219 199.160156 201.199219 C 198.964844 201.199219 197.195312 200.710938 197.046875 200.808594 C 196.898438 200.90625 199.011719 208.921875 199.011719 208.921875 L 199.0625 213.148438 L 200.242188 213.199219 L 200.539062 215.804688 L 200.09375 218.65625 L 201.078125 222.984375 L 201.175781 228.199219 L 204.128906 238.574219 L 205.898438 247.425781 L 206.242188 257.800781 C 203.929688 260.355469 198.71875 257.0625 198.71875 257.0625 C 198.71875 257.0625 199.160156 260.210938 198.765625 262.273438 C 198.421875 264.339844 197.09375 278.109375 197.488281 279.339844 C 197.882812 280.519531 199.160156 295.417969 199.40625 299.253906 C 199.652344 303.039062 200.882812 309.089844 200.882812 309.089844 L 202.0625 309.039062 C 202.0625 309.679688 202.160156 310.710938 202.75 311.890625 C 206.042969 311.890625 209.632812 311.398438 211.796875 309.777344 C 216.273438 306.53125 223.058594 305.402344 223.945312 304.613281 C 224.878906 303.828125 242.335938 297.976562 242.1875 295.910156 C 241.992188 293.84375 242.679688 295.566406 244.300781 296.84375 C 245.972656 298.125 250.5 296.550781 253.988281 296.992188 C 257.480469 297.484375 253.007812 292.664062 255.367188 291.386719 C 257.726562 290.109375 259.25 288.632812 261.265625 288.140625 C 263.285156 287.648438 266.332031 283.863281 266.726562 283.863281 C 267.167969 283.863281 289.199219 276.535156 289.347656 275.304688 C 289.492188 274.027344 294.066406 275.699219 295.050781 276.242188 C 296.082031 276.78125 304.835938 279.632812 309.605469 281.109375 C 314.328125 282.632812 325.195312 284.257812 328.144531 285.683594 C 331.046875 287.058594 336.652344 287.84375 338.078125 288.582031 C 339.503906 289.371094 341.226562 297.679688 341.226562 297.679688 C 341.226562 297.679688 341.175781 297.878906 341.078125 298.171875 C 355.484375 272.796875 363.648438 243.441406 363.648438 212.214844 Z M 152.542969 204.003906 C 152.492188 204.003906 152.492188 204.054688 152.492188 204.054688 C 152.445312 204.054688 152.445312 204.054688 152.542969 204.003906 Z M 152.542969 204.003906 " fill-opacity="1" fill-rule="nonzero"/></g><path fill="#ffffff" d="M 152.542969 204.003906 C 152.492188 204.003906 152.492188 204.054688 152.492188 204.054688 C 152.445312 204.054688 152.445312 204.054688 152.542969 204.003906 Z M 152.542969 204.003906 " fill-opacity="1" fill-rule="nonzero"/><path fill="#ffffff" d="M 171.523438 161.171875 C 171.523438 161.171875 172.066406 160.925781 172.703125 160.582031 L 172.558594 160.78125 C 172.558594 160.78125 172.3125 161.027344 172.015625 161.320312 Z M 171.523438 161.171875 " fill-opacity="1" fill-rule="nonzero"/><path fill="#ffffff" d="M 174.820312 159.058594 L 175.261719 159.253906 C 175.261719 159.304688 175.210938 159.304688 175.210938 159.304688 C 175.210938 159.355469 173.785156 160.042969 172.703125 160.582031 L 173.148438 159.992188 Z M 174.820312 159.058594 " fill-opacity="1" fill-rule="nonzero"/><path fill="#ffffff" d="M 188.6875 166.976562 C 188.636719 166.925781 188.589844 166.878906 188.539062 166.777344 C 188.589844 166.878906 188.636719 166.925781 188.6875 166.976562 Z M 188.6875 166.976562 " fill-opacity="1" fill-rule="nonzero"/><path fill="#f2f2f2" d="M 175.261719 159.253906 C 175.261719 159.304688 175.210938 159.304688 175.210938 159.304688 C 175.210938 159.355469 173.785156 160.042969 172.703125 160.582031 L 173.148438 159.992188 L 174.820312 159.058594 Z M 175.261719 159.253906 " fill-opacity="1" fill-rule="nonzero"/><path fill="#f2f2f2" d="M 152.542969 204.003906 C 152.492188 204.003906 152.492188 204.054688 152.492188 204.054688 C 152.445312 204.054688 152.445312 204.054688 152.542969 204.003906 Z M 152.542969 204.003906 " fill-opacity="1" fill-rule="nonzero"/><path fill="#f2f2f2" d="M 172.703125 160.582031 L 172.558594 160.78125 C 172.558594 160.78125 172.3125 161.027344 172.015625 161.320312 L 171.523438 161.171875 C 171.523438 161.171875 172.015625 160.925781 172.703125 160.582031 Z M 172.703125 160.582031 " fill-opacity="1" fill-rule="nonzero"/><path fill="#f2f2f2" d="M 188.6875 166.976562 C 188.636719 166.925781 188.589844 166.878906 188.539062 166.777344 C 188.589844 166.878906 188.636719 166.925781 188.6875 166.976562 Z M 188.6875 166.976562 " fill-opacity="1" fill-rule="nonzero"/></svg>